<?xml version="1.0" standalone="no"?>
<!DOCTYPE svg PUBLIC "-//W3C//DTD SVG 20010904//EN"
 "http://www.w3.org/TR/2001/REC-SVG-20010904/DTD/svg10.dtd">
<svg version="1.0" xmlns="http://www.w3.org/2000/svg"
 width="800.000000pt" height="800.000000pt" viewBox="0 0 800.000000 800.000000"
 preserveAspectRatio="xMidYMid meet">

<g transform="translate(0.000000,800.000000) scale(0.100000,-0.100000)"
fill="#000000" stroke="none">
<path d="M302 7948 l3 -53 68 -2 67 -1 0 54 0 54 -71 0 -70 0 3 -52z"/>
<path d="M840 7945 l0 -56 68 3 67 3 3 53 3 52 -70 0 -71 0 0 -55z"/>
<path d="M1010 7951 c0 -28 4 -53 10 -56 5 -3 39 -8 75 -10 l65 -4 0 59 0 60
-75 0 -75 0 0 -49z"/>
<path d="M2291 7996 c11 -9 69 -14 69 -6 0 6 -16 10 -37 10 -20 0 -34 -2 -32
-4z"/>
<path d="M2390 7986 c0 -16 30 -26 83 -26 30 0 37 4 37 20 0 18 -7 20 -60 20
-44 0 -60 -4 -60 -14z"/>
<path d="M2780 7951 c0 -46 2 -50 31 -60 56 -19 59 -16 59 49 l0 60 -45 0 -45
0 0 -49z"/>
<path d="M2882 7938 c3 -61 4 -64 37 -80 24 -12 39 -14 47 -7 15 12 29 -20 14
-35 -16 -16 -13 -142 4 -159 12 -11 11 -15 -4 -25 -15 -9 -19 -7 -23 7 -6 26
-58 37 -73 16 -11 -15 -13 -15 -16 2 -3 10 -3 52 0 93 4 86 -5 104 -55 115
l-33 7 0 -75 0 -75 35 -12 c19 -6 35 -16 35 -21 0 -11 -3 -11 -36 1 -36 14
-44 1 -44 -78 l0 -63 43 -18 c25 -11 44 -14 48 -9 4 6 9 6 14 -2 4 -6 19 -16
33 -23 l27 -11 -27 -4 c-27 -3 -28 -5 -28 -71 0 -73 10 -91 50 -91 14 0 44
-10 68 -22 35 -19 44 -21 51 -9 7 11 10 9 15 -7 4 -11 19 -25 34 -31 27 -11
27 -12 22 -87 -3 -41 -1 -82 3 -90 10 -17 -6 -18 -36 -3 -16 9 -22 9 -25 0 -2
-7 -8 -8 -15 -3 -7 5 -27 14 -44 20 -25 8 -33 8 -33 -1 0 -7 -7 -4 -14 6 -8
10 -30 20 -49 24 l-36 5 -4 -43 -4 -44 -1 43 c-2 36 -6 44 -28 52 -58 22 -64
16 -64 -60 l0 -69 43 -11 c23 -6 57 -18 76 -27 19 -8 45 -15 59 -15 21 0 23
-4 18 -30 -3 -17 -6 -57 -6 -89 0 -66 -10 -73 -47 -33 -18 20 -27 23 -37 15
-19 -16 -26 6 -26 75 l0 54 -35 0 c-26 0 -35 -4 -36 -17 0 -10 -3 -37 -5 -59
-4 -38 -3 -42 26 -54 28 -12 42 -40 20 -40 -5 0 -10 5 -10 12 0 6 -11 1 -25
-12 -23 -22 -25 -22 -26 -4 0 10 -2 99 -3 196 -3 198 -6 208 -64 204 l-37 -2
-3 -69 c-2 -56 0 -72 14 -82 15 -11 15 -13 0 -28 -9 -9 -16 -32 -16 -51 0 -19
-4 -34 -10 -34 -5 0 -10 5 -10 11 0 5 -5 7 -11 3 -6 -3 -15 0 -20 7 -12 20
-18 8 -21 -41 -3 -43 -2 -45 22 -42 14 1 27 7 28 12 5 15 19 12 26 -6 9 -23
-3 -37 -20 -23 -11 9 -14 8 -14 -2 0 -7 -10 -23 -22 -37 -22 -22 -22 -24 -5
-36 9 -7 17 -22 17 -33 0 -16 -10 -22 -50 -30 -50 -10 -50 -10 -50 16 0 75
-38 129 -103 145 l-28 7 3 -63 c3 -55 5 -63 23 -63 29 0 27 -39 -2 -43 -16 -2
-23 2 -23 12 0 9 -4 16 -10 16 -6 0 -10 28 -10 65 0 40 -4 65 -11 65 -7 0 -8
-14 -4 -40 8 -50 -2 -100 -21 -100 -21 0 -46 65 -42 109 3 33 1 36 -25 39
l-28 3 3 -68 c3 -61 5 -68 25 -71 12 -2 27 -10 33 -18 11 -12 0 -14 -76 -14
-60 1 -95 5 -108 15 -29 22 -9 38 40 32 50 -5 54 0 54 73 0 54 -3 57 -80 62
l-45 3 -1 -80 c-1 -64 -5 -81 -17 -83 -14 -3 -17 11 -19 84 l-3 88 -33 7 c-24
5 -35 3 -39 -6 -2 -8 -12 -11 -20 -8 -13 5 -15 -1 -11 -35 3 -34 0 -42 -16
-46 -13 -3 -17 -11 -13 -25 6 -23 -8 -38 -18 -21 -5 8 -12 7 -22 -2 -8 -6 -32
-11 -53 -9 -35 2 -37 1 -33 -23 5 -27 10 -27 76 -9 12 3 17 -2 19 -16 0 -12 1
-27 2 -33 1 -7 -6 -14 -14 -14 -8 -1 -21 -2 -27 -3 -7 0 -13 -8 -13 -16 0 -8
-4 -15 -10 -15 -5 0 -7 6 -4 14 7 18 -25 29 -42 15 -9 -8 -14 -8 -14 -1 0 7
-10 8 -32 2 -17 -5 -41 -7 -52 -5 -12 3 -45 7 -73 8 -29 2 -56 7 -60 10 -3 4
-17 -3 -30 -15 -19 -18 -23 -19 -23 -5 0 10 -5 14 -15 11 -9 -4 -15 0 -15 10
0 18 -15 22 -25 6 -3 -5 -15 -10 -25 -10 -10 0 -25 -6 -33 -14 -11 -11 -17
-12 -26 -3 -8 8 -11 6 -11 -7 0 -15 -6 -17 -27 -13 -16 3 -36 9 -46 12 -12 5
-17 2 -17 -10 0 -9 -5 -13 -10 -10 -6 4 -194 8 -418 10 -224 2 -411 4 -417 5
-8 0 -229 -5 -357 -9 l-38 -1 0 -1750 0 -1749 53 -34 c28 -19 70 -52 92 -73
43 -42 105 -150 105 -182 0 -11 6 -25 14 -32 8 -6 16 -24 18 -38 2 -21 9 -28
32 -30 30 -4 49 13 41 36 -3 9 3 10 21 6 l25 -6 -21 53 c-11 30 -20 62 -20 72
0 10 -5 15 -11 12 -6 -4 -13 2 -16 14 -8 33 -21 25 -28 -19 l-7 -40 -24 22
c-34 31 -57 75 -44 83 6 4 17 2 24 -4 7 -6 16 -8 20 -4 4 4 -11 24 -33 43 -39
34 -40 38 -46 110 -5 62 -4 71 6 55 7 -11 15 -22 19 -25 3 -3 11 -24 18 -46 7
-23 18 -44 26 -47 12 -5 14 11 12 86 -2 92 -2 92 -39 129 -38 37 -49 78 -22
78 8 0 15 5 15 11 0 13 25 39 38 39 6 0 12 7 16 15 4 11 21 15 60 15 52 0 56
-2 62 -26 4 -17 2 -29 -7 -35 -15 -9 -6 -13 24 -10 9 1 17 -3 17 -8 0 -6 9
-11 20 -11 11 0 20 -1 21 -2 0 -2 3 -42 6 -90 3 -58 2 -88 -5 -88 -22 0 -42
33 -43 73 l-2 42 -6 -35 -6 -34 -13 28 c-8 18 -18 26 -27 22 -8 -3 -27 1 -41
9 -37 19 -44 12 -44 -43 1 -79 16 -124 52 -154 26 -21 31 -29 21 -39 -18 -18
-16 -50 6 -101 10 -24 22 -63 26 -86 8 -48 19 -60 33 -36 14 25 33 7 26 -22
-8 -31 13 -74 37 -74 20 0 29 -28 18 -58 -10 -27 -45 -29 -58 -3 -6 10 -8 21
-5 24 11 10 -20 66 -31 58 -5 -5 -22 -11 -37 -15 -24 -6 -26 -9 -21 -43 5 -31
4 -35 -10 -30 -11 4 -17 1 -17 -7 0 -8 9 -16 20 -19 25 -6 27 -38 2 -35 -9 1
-34 -2 -54 -6 -34 -7 -38 -12 -39 -40 0 -31 -17 -83 -18 -58 -1 9 -6 10 -20 2
-16 -8 -21 -6 -26 10 -7 23 -21 26 -28 8 -2 -8 -12 1 -23 20 -17 30 -22 32
-55 27 -36 -6 -36 -6 -48 39 -16 64 -14 96 6 103 42 14 102 45 114 59 10 13
10 17 -2 25 -17 11 -29 12 -28 2 5 -28 -2 -36 -15 -18 -12 16 -16 17 -29 6 -9
-7 -21 -10 -26 -7 -5 4 -12 2 -16 -4 -9 -15 -22 -12 -29 7 -10 26 9 37 62 34
l49 -2 21 56 c33 85 26 119 -17 96 -25 -14 -35 9 -16 36 11 15 11 21 -2 36 -9
9 -21 17 -27 17 -7 0 -27 13 -46 30 -19 16 -38 29 -42 30 -5 0 -8 -40 -8 -90
0 -52 4 -90 10 -90 11 0 100 -83 100 -94 0 -4 -10 2 -21 13 -12 11 -35 26 -53
35 l-31 15 -3 -601 c-2 -592 -2 -601 18 -615 11 -8 20 -23 20 -34 0 -17 -3
-18 -20 -9 -20 10 -20 8 -20 -119 0 -71 5 -142 11 -158 7 -19 7 -29 0 -31 -7
-2 -11 -41 -11 -102 0 -85 2 -98 16 -96 9 0 19 -4 21 -11 3 -7 -3 -10 -16 -6
-19 5 -20 -1 -21 -172 0 -153 2 -180 16 -196 10 -11 23 -19 29 -19 7 0 32 -17
56 -37 24 -21 53 -43 63 -49 27 -14 40 -38 33 -58 -9 -22 -62 -21 -79 2 -7 9
-23 23 -35 29 -19 11 -24 9 -42 -14 -25 -31 -26 -43 -6 -43 8 0 15 -6 15 -14
0 -8 15 -17 35 -20 26 -5 35 -12 35 -26 0 -11 6 -20 14 -20 8 0 16 -7 20 -15
7 -19 -8 -19 -28 0 -22 22 -43 18 -50 -9 -4 -16 -18 -29 -41 -37 l-34 -13 0
-117 c0 -103 2 -118 17 -122 16 -4 16 -5 0 -6 -15 -1 -18 -11 -18 -56 l0 -55
1875 0 1875 0 0 32 c0 18 -6 141 -15 273 -8 132 -19 366 -25 520 -22 571 -80
1260 -131 1563 -10 63 -19 129 -19 147 0 18 -13 97 -29 176 -17 79 -34 169
-40 199 -5 30 -15 82 -21 115 -7 33 -16 86 -21 118 -11 75 -22 93 -57 100 -41
8 -141 106 -153 151 -11 39 -32 46 -71 25 -31 -17 -131 -28 -328 -38 -240 -13
-239 -14 -184 129 14 36 39 94 56 130 39 84 45 99 52 131 3 14 35 57 72 96 61
64 67 73 69 119 6 99 41 189 70 178 21 -9 32 62 12 84 -13 15 -13 19 -1 30 8
7 14 22 14 33 0 11 4 18 9 15 14 -9 44 95 32 107 -17 17 -43 -17 -76 -96 -32
-79 -42 -83 -19 -8 8 29 13 58 11 64 -6 18 11 47 28 47 8 0 15 7 15 15 0 9 7
18 15 21 8 4 15 14 15 24 0 10 7 23 15 30 13 11 14 10 9 -4 -4 -11 -1 -16 10
-16 10 0 16 9 16 24 0 14 5 28 11 32 7 4 9 0 6 -12 -4 -11 -9 -32 -13 -49 -4
-16 -14 -35 -22 -41 -18 -13 -8 -49 9 -38 9 5 10 -4 6 -32 -4 -21 -4 -33 -1
-26 3 6 10 10 15 6 12 -7 11 -65 -1 -84 -8 -12 -10 -11 -10 8 0 12 -3 22 -6
22 -16 0 -33 -38 -34 -72 0 -21 -4 -38 -8 -38 -4 0 -7 -24 -6 -54 1 -29 -2
-60 -7 -67 -6 -11 -9 -9 -9 8 0 20 -1 20 -29 -6 -29 -27 -34 -43 -32 -91 1
-25 2 -24 37 13 19 20 39 37 44 37 5 0 27 23 49 50 22 28 43 51 45 51 16 -1
36 13 36 24 0 7 11 20 25 29 14 9 25 25 25 36 0 11 6 20 14 20 8 0 18 9 21 20
3 11 10 20 14 20 5 0 22 14 39 30 18 16 35 30 40 30 4 0 20 6 35 13 21 9 27
19 27 44 0 17 -4 35 -10 38 -5 3 -9 14 -9 23 1 14 2 14 6 -2 4 -15 7 -16 14
-5 7 11 10 9 15 -8 8 -28 34 -30 34 -3 0 11 5 20 11 20 11 0 9 -16 -6 -54 -6
-14 -4 -17 6 -14 10 4 14 24 14 79 1 77 11 129 26 129 15 0 10 48 -6 54 -8 3
-15 1 -15 -4 0 -6 -7 -10 -15 -10 -8 0 -15 -8 -15 -19 0 -10 -11 -30 -25 -45
-15 -16 -25 -39 -25 -57 0 -16 -4 -29 -8 -29 -4 0 -27 -18 -50 -40 l-42 -41 0
58 c1 32 7 72 15 88 8 17 13 21 11 10 -2 -11 -7 -37 -11 -57 l-6 -38 25 24
c21 22 56 80 56 94 0 2 -6 -1 -13 -7 -8 -6 -17 -8 -20 -4 -10 9 -9 53 1 52 23
-4 32 5 42 42 6 23 9 53 5 66 l-6 25 -24 -28 c-28 -33 -44 -27 -22 8 21 32 26
90 8 96 -10 3 -12 -3 -6 -26 4 -21 1 -36 -9 -49 -67 -78 -86 -102 -86 -113 0
-10 -3 -10 -16 1 -13 10 -17 10 -25 -2 -9 -13 -4 95 7 149 2 12 2 22 0 22 -10
0 -44 -67 -50 -99 -5 -29 -4 -32 9 -21 13 10 15 9 15 -11 0 -32 -15 -53 -30
-44 -7 4 -16 2 -21 -6 -4 -8 -13 -15 -19 -15 -5 -1 -14 -2 -19 -3 -5 0 -12
-11 -16 -23 -7 -22 -8 -22 -12 5 -5 31 11 57 35 57 12 0 13 3 4 12 -7 7 -12
31 -12 55 0 49 -13 56 -28 16 -10 -27 -10 -27 -11 -4 -1 20 -3 21 -16 11 -8
-7 -15 -19 -15 -26 0 -16 -9 -18 -27 -6 -9 6 -1 21 27 53 27 29 38 51 36 64
-4 16 5 25 42 43 26 12 53 22 60 22 8 0 12 23 12 75 0 69 2 76 23 84 12 5 30
17 39 28 16 17 16 21 2 41 -12 18 -19 20 -42 11 -21 -8 -29 -7 -38 5 -7 11
-14 12 -21 5 -28 -28 -41 73 -14 105 16 19 15 21 -16 30 -19 6 -25 2 -33 -19
-6 -15 -8 -31 -5 -35 8 -13 -6 -90 -16 -90 -5 0 -6 14 -2 30 3 19 1 30 -6 30
-6 0 -11 11 -11 24 0 28 -26 54 -41 39 -6 -6 -6 -19 1 -38 7 -20 8 -31 0 -39
-7 -7 -10 -2 -10 16 0 15 -4 30 -10 33 -6 4 -10 -8 -10 -28 0 -19 -3 -50 -7
-68 -7 -33 -7 -33 -14 -9 -4 14 -8 41 -9 60 -3 34 -3 34 -11 -10 -15 -84 -37
-175 -38 -157 0 10 -7 20 -14 23 -10 3 -12 22 -9 67 3 61 3 62 -12 33 -9 -15
-17 -38 -17 -50 -1 -11 -4 -5 -8 14 -4 26 -11 35 -26 36 -48 2 -55 5 -55 19 0
8 12 26 28 40 22 21 24 27 12 35 -12 7 -11 10 5 16 31 12 55 44 55 76 0 30 16
36 51 17 18 -9 19 -7 13 15 -4 18 -1 28 15 38 12 7 21 18 21 25 0 7 3 13 8 13
4 0 27 18 52 40 64 57 68 60 80 60 5 0 10 5 10 12 0 6 11 26 25 44 24 32 35
81 15 69 -5 -3 -10 -15 -10 -26 0 -10 -4 -19 -10 -19 -21 0 -7 70 14 70 12 1
46 62 46 84 0 8 6 19 14 25 7 6 16 29 20 50 3 22 9 46 12 55 3 9 1 16 -5 16
-6 0 -11 -6 -11 -14 0 -7 -9 -25 -20 -39 -11 -14 -23 -39 -26 -56 -4 -17 -11
-28 -16 -25 -5 4 -7 22 -3 40 3 21 2 34 -5 34 -5 0 -10 -7 -10 -15 0 -7 -6
-18 -14 -22 -19 -12 -36 -48 -36 -80 0 -25 -19 -72 -20 -49 0 5 -9 1 -20 -9
-17 -15 -20 -16 -20 -3 0 9 7 18 15 22 8 3 15 13 15 21 0 10 -5 13 -11 9 -8
-5 -10 1 -7 20 3 17 1 26 -7 26 -17 0 -31 -19 -39 -52 -3 -16 -11 -28 -17 -28
-11 0 -8 101 6 185 6 37 5 39 -9 21 -13 -15 -16 -16 -16 -5 0 21 70 96 97 104
15 4 20 11 16 22 -5 13 -2 15 13 9 44 -18 86 -19 95 -3 5 8 17 13 27 10 27 -7
49 26 54 82 6 57 2 75 -17 75 -19 0 -35 -32 -35 -72 -1 -33 -1 -33 -14 -9 -13
23 -14 23 -25 5 -11 -17 -12 -16 -8 11 2 17 8 39 12 50 8 18 7 19 -10 5 -19
-15 -19 -14 -2 12 22 34 21 38 -3 38 -10 0 -24 -8 -29 -17 -7 -13 -10 -14 -11
-4 0 16 29 40 48 41 8 0 28 10 45 22 18 13 37 23 42 23 6 0 10 18 10 40 0 33
-3 40 -20 40 -16 0 -20 7 -20 30 0 26 -4 30 -27 30 -20 1 -26 -4 -25 -20 2
-49 -4 -85 -14 -85 -7 0 -18 -8 -25 -17 -7 -10 -16 -14 -20 -10 -5 4 4 18 20
30 21 17 27 29 24 52 -3 27 -6 30 -33 27 -16 -2 -33 -9 -37 -15 -5 -7 -8 -3
-8 11 l0 23 -22 -21 c-12 -11 -24 -20 -28 -20 -3 0 -14 -14 -24 -31 -15 -26
-18 -44 -13 -103 5 -56 4 -67 -5 -51 -7 11 -11 54 -10 100 2 73 1 78 -13 61
-8 -11 -16 -36 -16 -55 -1 -24 -3 -28 -6 -13 -2 12 -9 22 -14 22 -24 0 -5 46
36 87 24 25 42 50 39 54 -3 5 11 9 30 9 19 0 37 4 40 9 8 13 58 24 65 14 10
-14 68 -43 85 -43 9 0 16 -6 16 -12 1 -19 53 -55 58 -40 10 31 22 6 22 -48 0
-33 4 -60 10 -60 10 0 30 -63 30 -99 0 -16 -4 -21 -15 -18 -23 9 -30 -15 -9
-32 26 -22 40 -85 34 -151 -5 -41 -1 -64 12 -92 13 -26 18 -60 18 -116 0 -60
4 -83 16 -92 9 -8 14 -25 12 -44 -3 -28 -7 -32 -46 -37 -41 -5 -56 -17 -83
-67 -20 -37 -1 -45 70 -31 34 6 65 8 69 4 11 -11 3 -187 -9 -202 -8 -9 -6 -17
6 -29 11 -11 14 -25 10 -43 -4 -19 0 -32 13 -45 19 -16 20 -16 26 1 4 10 14
90 21 178 15 171 15 169 39 260 8 33 17 87 20 120 10 147 35 204 106 251 44
30 61 63 38 78 -13 8 -12 12 4 28 10 10 18 27 18 38 0 18 7 20 55 20 39 0 55
-4 55 -13 0 -10 15 -13 57 -11 53 2 58 5 77 36 10 19 30 39 42 45 22 10 24 8
33 -23 5 -18 7 -43 4 -55 -5 -17 -2 -20 13 -17 10 2 19 11 19 21 0 10 5 21 12
25 6 4 11 18 11 32 1 57 17 105 40 115 12 5 22 15 22 20 0 22 58 54 118 65 74
15 134 7 187 -25 81 -49 96 -55 142 -61 27 -3 57 -9 68 -14 11 -5 32 -11 46
-14 15 -3 29 -14 32 -26 3 -13 13 -20 29 -20 14 0 50 -18 82 -40 31 -22 60
-40 65 -40 18 0 43 -41 48 -80 4 -31 14 -48 41 -70 20 -16 36 -39 37 -52 1
-17 14 -29 48 -46 l47 -24 -22 -18 c-18 -15 -20 -19 -8 -23 8 -3 22 -7 32 -10
13 -5 15 -14 11 -49 -7 -52 -18 -68 -48 -68 -13 0 -44 -9 -70 -20 -34 -15 -65
-19 -118 -18 -111 4 -166 -7 -263 -53 -77 -36 -124 -37 -168 -4 -18 14 -36 25
-39 25 -4 0 -28 13 -54 29 -80 49 -171 78 -270 86 -64 5 -93 11 -97 21 -3 8
-15 14 -27 14 -11 0 -36 7 -54 16 -27 12 -41 13 -73 5 -43 -12 -61 -35 -34
-46 28 -11 -7 -25 -58 -23 -25 0 -35 3 -22 5 27 5 29 23 2 24 -11 1 -28 2 -37
3 -12 1 -23 -14 -35 -47 -17 -46 -17 -48 2 -67 15 -15 18 -25 11 -38 -16 -31
6 -61 63 -87 30 -14 61 -25 69 -25 8 0 26 -19 40 -42 34 -58 75 -86 152 -105
60 -15 71 -15 152 1 49 10 107 28 130 42 23 13 51 24 63 24 12 0 38 18 60 42
34 38 43 42 80 41 23 -1 48 -7 55 -13 35 -29 65 -126 79 -250 17 -160 35 -213
71 -208 17 3 20 10 19 47 -1 29 -6 46 -17 53 -20 11 -21 27 -3 51 11 15 18 16
39 6 21 -9 29 -8 54 10 27 20 31 21 76 7 26 -8 47 -12 47 -9 0 3 6 0 14 -6 8
-7 68 -11 177 -10 90 1 172 -1 181 -5 46 -20 -4 -237 -59 -251 -13 -3 -23 -13
-23 -22 0 -9 -3 -13 -6 -10 -4 4 -19 -2 -34 -13 -16 -11 -31 -20 -36 -20 -4 0
-22 -11 -40 -25 -18 -14 -39 -25 -47 -25 -8 0 -24 -16 -36 -35 -11 -19 -25
-35 -31 -35 -5 0 -10 -9 -10 -20 0 -11 -6 -23 -14 -26 -8 -3 -12 -12 -10 -19
10 -24 -15 -55 -44 -55 -20 0 -30 7 -40 29 -13 29 -75 68 -100 63 -8 -2 -12 7
-10 27 1 16 -4 36 -11 45 -7 9 -10 23 -7 33 4 9 4 41 0 71 -5 42 -11 55 -28
62 -11 4 -28 17 -36 29 -20 28 -43 26 -82 -7 -43 -37 -105 -72 -126 -72 -9 0
-30 14 -45 30 -31 33 -53 36 -123 19 -46 -12 -52 -22 -31 -50 17 -23 116 -51
102 -30 -10 17 13 21 29 5 18 -17 18 -21 16 -113 -1 -56 1 -63 15 -57 9 3 25
6 35 6 10 0 26 7 34 16 9 8 16 11 16 5 0 -6 6 -11 13 -11 6 0 25 -16 40 -35
16 -20 31 -34 35 -31 4 2 16 -5 26 -15 18 -17 18 -19 2 -19 -9 0 -30 7 -46 15
-23 12 -39 13 -86 4 -48 -9 -63 -8 -95 7 -37 16 -44 16 -156 -4 -65 -12 -152
-21 -193 -20 -85 1 -120 -7 -120 -28 0 -19 -18 -17 276 -27 76 -3 141 -10 154
-17 13 -7 61 -15 107 -18 76 -4 86 -7 101 -30 15 -23 15 -25 -2 -37 -14 -11
-15 -17 -7 -34 10 -18 8 -21 -21 -26 -18 -3 -62 -2 -98 4 -49 7 -72 6 -95 -4
-16 -7 -40 -16 -53 -20 -13 -4 -21 -12 -19 -18 4 -14 51 -40 99 -56 20 -7 42
-19 49 -27 9 -11 28 -15 63 -13 28 1 72 -2 98 -6 34 -5 61 -2 98 10 44 15 54
15 61 4 11 -18 11 -26 0 -33 -5 -4 -12 -25 -16 -49 -10 -59 -64 -106 -121
-107 -28 0 -44 -5 -48 -15 -3 -9 -18 -15 -34 -15 -16 0 -34 -6 -40 -13 -13
-15 -77 -14 -167 2 -33 6 -97 11 -142 11 -52 0 -83 4 -85 11 -3 9 -10 9 -26 0
-32 -17 -107 -10 -107 9 -1 8 -6 25 -13 37 -15 26 -16 60 -2 68 18 11 10 26
-20 36 -16 6 -31 15 -31 20 -4 30 -20 59 -31 59 -7 0 -8 -18 -4 -50 4 -28 4
-55 1 -61 -8 -13 -65 48 -65 70 0 9 -13 22 -30 29 -18 8 -30 21 -30 33 0 10
-6 19 -13 19 -7 0 -17 10 -22 22 -10 22 -59 56 -83 57 -9 1 -11 -6 -7 -19 5
-16 2 -20 -19 -20 -34 0 -34 -26 1 -94 40 -78 43 -85 43 -102 0 -9 21 -37 46
-63 26 -25 51 -58 56 -73 6 -16 16 -28 24 -28 8 0 14 -8 14 -17 0 -10 23 -42
50 -71 28 -30 50 -60 50 -68 0 -8 3 -14 8 -14 9 0 49 -77 58 -112 3 -16 10
-28 15 -28 13 0 71 -126 68 -147 -2 -10 3 -29 10 -42 7 -12 10 -32 7 -44 -3
-12 0 -27 6 -34 8 -10 8 -20 0 -38 -7 -14 -8 -25 -4 -25 4 0 13 -4 21 -9 11
-7 12 -13 3 -23 -12 -15 -6 -58 8 -58 9 0 26 -59 21 -74 -1 -5 5 -6 13 -3 9 4
16 -1 19 -11 3 -11 7 -5 12 16 4 19 14 36 22 39 8 3 12 12 9 20 -3 8 2 16 12
19 9 3 25 10 34 15 10 5 24 9 32 9 7 0 19 7 26 15 31 37 147 3 138 -40 -3 -21
24 -55 60 -74 12 -6 22 -18 22 -26 0 -8 9 -15 19 -15 11 0 27 -7 36 -16 17
-18 87 -13 93 6 8 24 93 -12 98 -42 3 -19 22 -59 43 -93 11 -16 20 -38 20 -47
1 -9 13 -31 28 -48 l26 -31 18 28 c13 21 19 60 25 163 8 155 8 146 -3 346 -8
159 -12 172 -65 211 -24 19 -35 150 -15 189 8 16 12 35 10 42 -4 10 2 13 18
10 20 -2 26 4 36 32 7 19 13 52 13 73 0 20 4 37 10 37 5 0 9 -22 9 -49 -1 -27
2 -54 5 -60 16 -25 26 -8 27 42 0 28 4 61 8 71 7 18 8 18 14 -5 4 -13 4 -48 0
-76 -3 -29 -3 -53 0 -53 3 0 13 25 22 56 9 31 23 67 32 80 9 15 12 34 8 53 -5
25 0 36 40 78 25 26 53 61 61 76 8 16 31 49 50 74 19 24 34 54 34 66 0 12 6
33 13 48 21 39 67 177 67 199 0 23 28 40 64 40 14 0 26 5 26 10 0 6 15 10 33
10 42 0 67 15 38 23 -11 2 -22 0 -23 -5 -4 -11 -40 5 -66 30 -12 11 -11 16 7
36 11 12 21 29 21 38 0 9 9 27 20 40 11 12 33 48 49 78 16 30 34 56 40 56 6 1
16 2 21 3 14 2 12 28 -2 34 -10 4 -10 7 0 18 6 7 12 28 12 45 0 18 5 36 10 39
6 3 10 -1 10 -9 0 -9 4 -16 8 -16 4 0 8 24 8 53 0 34 8 67 23 96 18 35 23 60
23 132 1 49 4 89 8 89 4 0 15 -10 24 -22 12 -16 18 -19 22 -10 15 34 83 -8 84
-53 0 -11 5 -27 10 -35 7 -11 10 -5 10 23 0 20 5 37 11 37 6 0 8 9 4 20 -7 23
13 28 21 5 9 -24 20 -18 32 18 10 32 10 32 11 5 1 -16 6 -28 12 -28 7 0 9 -10
5 -25 -4 -17 -1 -30 12 -43 13 -13 17 -29 14 -59 -2 -22 0 -43 5 -46 19 -12
32 10 35 58 1 28 7 53 12 57 5 3 11 37 14 74 4 67 23 117 37 95 3 -6 1 -11 -4
-11 -6 0 -11 -16 -11 -35 0 -28 3 -33 17 -28 17 7 17 5 -2 -83 l-6 -29 21 25
c21 24 22 46 4 95 -7 19 -7 19 13 3 11 -10 29 -18 41 -18 21 0 22 -4 21 -82
-1 -46 -3 -75 -6 -65 -2 9 -9 17 -14 17 -6 0 -8 -18 -3 -46 8 -59 -9 -52 -38
13 -23 53 -36 47 -40 -22 -3 -47 -4 -49 -16 -25 -11 22 -11 20 -6 -20 3 -25
15 -55 27 -67 11 -13 17 -26 14 -30 -4 -3 -14 2 -23 13 -14 18 -15 18 -8 -6 3
-14 7 -25 8 -25 0 0 11 -6 24 -13 21 -12 22 -11 23 25 1 34 2 35 9 13 9 -27
12 -163 3 -142 -11 28 -20 -1 -11 -35 5 -21 11 -49 12 -63 5 -42 5 -43 21 -30
8 7 13 15 10 19 -2 4 2 25 9 46 13 37 14 37 21 14 8 -23 8 -23 16 -4 6 16 8
17 8 3 1 -12 6 -15 17 -11 8 3 13 11 10 18 -11 29 43 58 108 56 27 0 52 3 56
8 3 5 23 3 45 -5 22 -7 54 -14 70 -14 17 0 37 -4 44 -9 16 -10 -1 -17 -59 -23
l-25 -3 31 -30 c17 -17 34 -38 37 -48 4 -10 11 -15 17 -12 5 3 10 -3 10 -14 0
-25 20 -27 61 -5 17 8 38 13 47 9 14 -5 14 -7 0 -22 -9 -8 -29 -15 -45 -15
-34 0 -83 -24 -83 -41 0 -6 -5 -4 -11 6 -7 12 -17 16 -30 12 -10 -4 -19 -2
-19 3 0 12 -47 25 -60 17 -6 -4 -1 -23 10 -45 11 -22 20 -48 20 -59 0 -11 9
-25 20 -31 11 -6 20 -16 20 -22 0 -6 7 -20 17 -30 14 -16 14 -18 1 -18 -9 0
-21 7 -28 15 -7 8 -18 15 -26 15 -7 0 -18 8 -23 18 -9 15 -12 15 -21 2 -5 -8
-10 -10 -10 -4 0 7 -13 0 -29 -15 -22 -20 -27 -30 -19 -44 5 -10 6 -26 3 -37
-11 -35 -180 -114 -195 -90 -4 7 -20 6 -49 -5 l-43 -15 7 48 7 47 -27 -29
c-25 -27 -27 -27 -40 -10 -14 18 -14 17 -15 -7 0 -15 16 -50 35 -79 34 -51 42
-70 28 -70 -3 0 -14 7 -23 15 -14 13 -16 9 -16 -38 -1 -64 -21 -128 -44 -144
-10 -7 -21 -24 -24 -38 -4 -14 -13 -25 -21 -25 -8 0 -15 -8 -15 -17 -1 -17 -2
-17 -15 1 -7 10 -18 15 -24 11 -6 -3 -11 -2 -11 4 0 5 -6 16 -13 23 -14 14
-47 122 -47 155 0 12 -11 25 -26 32 -26 12 -27 11 -20 -21 4 -20 3 -28 -3 -19
-7 11 -9 11 -14 0 -6 -17 -11 31 -8 84 2 21 -2 37 -8 37 -6 0 -11 11 -11 25 0
15 -7 39 -15 55 -9 17 -12 30 -8 30 8 0 33 -39 66 -103 11 -21 21 -36 24 -34
2 3 14 47 27 98 20 87 24 94 45 91 18 -2 22 2 17 14 -3 8 -6 18 -6 20 0 2 -6
4 -14 4 -30 0 -22 108 8 111 6 0 25 2 42 2 40 2 139 94 122 114 -15 18 -26 16
-31 -4 -3 -10 -5 7 -6 36 -1 42 -4 52 -13 43 -6 -6 -11 -34 -9 -65 2 -44 -2
-58 -24 -82 -29 -35 -33 -20 -11 47 8 24 14 51 13 61 0 21 -27 23 -27 2 0 -9
-16 -25 -36 -37 -22 -13 -33 -26 -30 -35 3 -8 1 -11 -4 -8 -6 3 -10 -2 -10
-12 0 -25 -31 -103 -41 -103 -5 0 -9 -6 -9 -12 0 -7 -9 -24 -20 -38 -19 -24
-20 -24 -20 -3 0 29 -10 53 -21 53 -6 0 -4 -10 2 -22 9 -17 8 -28 -7 -56 -16
-31 -21 -33 -52 -27 -18 3 -40 9 -48 12 -10 4 -12 0 -8 -11 3 -9 9 -16 13 -16
3 0 17 -9 30 -19 l24 -18 -21 -31 c-14 -20 -22 -45 -22 -74 0 -31 -3 -39 -10
-28 -7 11 -10 12 -10 2 0 -7 7 -20 15 -28 8 -8 12 -20 10 -27 -2 -7 -6 -24 -9
-40 -6 -25 -5 -27 18 -21 21 5 27 0 45 -38 11 -23 20 -37 21 -30 0 11 40 19
40 8 0 -3 -9 -21 -21 -41 -14 -24 -19 -44 -15 -63 6 -24 5 -25 -7 -9 -8 9 -22
17 -31 17 -15 0 -21 12 -16 35 1 6 -4 4 -11 -2 -10 -10 -9 -19 4 -45 8 -18 18
-41 21 -50 6 -20 36 -25 36 -5 0 6 9 1 20 -13 11 -14 20 -19 20 -12 0 19 17
14 23 -7 5 -20 38 -45 74 -55 17 -6 31 2 64 33 52 51 79 54 79 8 0 -23 -11
-46 -40 -81 -30 -36 -40 -57 -40 -83 0 -20 -4 -32 -10 -28 -6 3 -13 -2 -17
-12 -8 -21 -63 -79 -63 -66 0 19 -54 12 -97 -13 -44 -24 -47 -25 -85 -9 -22 9
-47 22 -55 30 -8 8 -28 15 -45 15 -24 0 -29 -3 -24 -17 5 -13 0 -11 -18 6 -33
31 -33 51 0 51 20 0 25 4 20 16 -3 9 -6 37 -6 62 l0 47 -27 -29 c-19 -21 -28
-25 -31 -16 -3 8 0 16 7 18 20 7 13 41 -9 39 -11 -1 -20 -5 -20 -9 0 -4 -8 -8
-17 -8 -14 0 -14 3 4 22 11 13 24 32 28 43 7 19 8 18 14 -5 9 -32 33 -32 41
-1 l5 24 12 -27 c14 -29 53 -36 75 -11 46 51 48 58 12 45 -34 -13 -77 -13
-108 1 -17 8 -30 9 -38 2 -12 -10 -60 -25 -83 -27 -5 -1 -12 -14 -15 -31 -5
-28 -6 -28 -12 -7 -5 18 -13 22 -42 22 -24 0 -36 5 -36 14 0 7 -6 18 -12 23
-18 14 -63 0 -63 -19 0 -29 -14 -31 -21 -3 l-7 27 -13 -32 c-20 -46 -18 -110
2 -110 8 0 12 -5 9 -10 -4 -6 -11 -8 -16 -5 -5 4 -9 -1 -9 -10 0 -9 -6 -15
-12 -12 -8 2 -12 20 -11 48 2 33 1 39 -6 24 -5 -11 -10 -36 -10 -55 -1 -41
-25 -126 -35 -122 -3 1 -10 2 -16 2 -5 0 -15 10 -21 23 l-12 22 23 -20 23 -20
-8 70 c-8 78 -9 80 -25 70 -7 -5 -10 -19 -6 -37 5 -26 4 -29 -9 -18 -19 16
-34 5 -17 -12 17 -17 15 -28 -5 -21 -13 5 -15 2 -9 -18 4 -13 10 -37 13 -54 8
-42 37 -77 52 -62 8 8 11 4 12 -18 0 -26 2 -27 9 -10 5 11 9 34 9 52 1 32 26
51 59 44 8 -1 16 8 20 21 l6 23 7 -25 c4 -14 7 -43 7 -65 l0 -40 -9 32 c-5 18
-14 35 -20 39 -7 4 -7 -1 0 -15 7 -13 11 -61 10 -117 -1 -75 2 -98 15 -113 9
-9 16 -22 16 -27 0 -6 15 -27 34 -48 19 -20 48 -61 64 -89 16 -29 37 -59 46
-66 9 -7 16 -23 16 -36 0 -12 17 -53 38 -90 37 -68 38 -69 107 -92 113 -38
175 -71 175 -90 0 -12 -23 -30 -65 -52 -60 -32 -68 -34 -98 -23 -48 17 -50 16
-43 -22 9 -49 -18 -66 -107 -66 -43 0 -90 -8 -130 -21 -34 -12 -104 -25 -155
-29 -50 -3 -95 -9 -98 -12 -3 -4 7 -12 23 -20 16 -7 29 -23 31 -36 4 -24 69
-95 115 -125 15 -10 37 -39 49 -65 12 -26 34 -66 49 -89 16 -26 29 -64 33 -98
3 -31 18 -84 32 -118 14 -34 31 -102 39 -152 8 -49 21 -121 29 -160 51 -239
59 -393 50 -870 -9 -418 -8 -539 2 -847 l6 -198 500 0 c471 0 499 1 494 18
-39 140 -40 152 -23 297 18 148 21 296 11 457 -4 65 -3 102 4 111 13 15 14
415 2 432 -4 6 -10 27 -13 48 l-6 37 142 1 c283 2 472 -6 510 -20 14 -5 30 -5
40 0 21 12 23 -3 3 -20 -9 -8 -38 -8 -99 -2 -47 4 -97 6 -112 4 -26 -6 -34
-28 -12 -36 34 -12 -35 -24 -155 -26 -27 -1 -48 -5 -48 -9 0 -8 155 -20 339
-28 97 -3 171 -14 171 -25 0 -5 -8 -9 -19 -9 -10 0 -21 -9 -24 -20 -3 -11 -1
-18 4 -14 5 3 9 1 9 -5 0 -20 -46 -39 -98 -40 -29 0 -63 -6 -75 -13 -21 -11
-20 -12 18 -19 22 -5 67 -8 100 -9 107 -1 108 -2 102 -84 -8 -99 -18 -166 -27
-166 -4 0 -5 -11 -3 -25 3 -13 -2 -45 -11 -71 -9 -26 -16 -57 -16 -69 0 -11
-10 -29 -22 -39 -20 -17 -20 -20 -5 -31 22 -16 22 -39 1 -31 -9 3 -19 6 -24 6
-4 0 -13 14 -20 30 -11 26 -30 42 -30 25 0 -10 34 -60 49 -71 8 -7 11 -16 6
-24 -5 -9 -4 -11 3 -6 14 8 15 -3 4 -21 -6 -9 -25 3 -66 42 -31 30 -54 59 -51
65 4 6 11 7 17 4 7 -4 8 -2 4 4 -4 6 -13 9 -22 5 -8 -3 -24 3 -34 12 -22 20
-26 14 -10 -16 12 -21 1 -26 -18 -7 -9 9 -12 7 -12 -10 0 -12 -13 -48 -30 -78
-16 -31 -27 -61 -24 -66 7 -11 53 48 61 80 6 26 38 46 56 36 29 -16 57 -49 57
-66 0 -10 6 -18 14 -18 22 0 63 -38 61 -57 -1 -10 -7 -31 -15 -48 -16 -38 -15
-64 4 -78 13 -11 13 -17 -4 -50 -10 -21 -16 -45 -14 -52 3 -8 -1 -24 -10 -37
-9 -12 -16 -32 -16 -45 0 -12 -4 -25 -10 -28 -5 -3 -10 -20 -10 -38 0 -33 -14
-28 -23 8 -3 11 -4 -6 -3 -37 0 -36 5 -58 12 -58 14 0 44 44 44 65 0 8 9 15
20 15 12 0 25 13 36 38 22 47 21 45 34 37 8 -5 8 -10 0 -20 -14 -16 -3 -43 21
-50 22 -7 24 -15 7 -38 -11 -13 -42 -21 -110 -26 -5 -1 -8 -5 -8 -11 0 -6 107
-10 300 -10 l300 0 44 33 c25 17 45 37 45 44 1 6 10 14 20 18 10 3 24 19 31
35 7 17 16 30 21 30 5 0 9 9 9 20 0 11 4 20 9 20 4 0 29 26 54 57 25 32 66 80
91 106 l46 49 0 1856 0 1857 -38 -1 c-62 -1 -69 -3 -53 -13 21 -13 6 -44 -18
-36 -11 3 -25 -1 -34 -9 -13 -14 -16 -13 -21 10 -8 32 0 46 27 42 12 -2 22 2
21 7 -1 22 -26 75 -35 75 -5 0 -9 11 -9 24 0 24 20 39 43 32 6 -3 24 -7 38
-10 27 -6 27 -6 18 35 -5 22 -10 45 -12 52 -1 7 7 12 18 13 11 1 28 5 38 9 16
7 17 48 17 655 l0 648 -22 5 c-12 3 -30 2 -40 -4 -18 -10 -25 1 -10 15 4 4 7
47 7 96 0 84 1 90 33 128 38 48 41 77 10 102 -21 16 -22 21 -10 52 16 47 15
58 -5 52 -10 -3 -6 3 10 12 l27 19 0 296 0 297 -28 5 c-30 6 -92 57 -92 76 0
16 31 13 52 -5 15 -14 20 -15 34 -4 13 12 17 11 25 -1 6 -10 9 -7 9 13 0 15
-4 29 -9 33 -12 7 -11 65 1 65 4 0 8 38 8 85 0 66 -3 85 -14 85 -28 0 -28 59
1 88 10 11 13 97 13 423 l0 409 -900 0 -900 0 0 -25 c0 -23 -3 -25 -49 -25
-41 0 -53 4 -69 25 l-20 25 -240 0 -239 0 5 -27 c5 -25 4 -27 -11 -14 -10 7
-17 20 -17 27 0 12 -43 14 -240 14 l-239 0 4 -97 c2 -54 1 -109 -2 -123 -6
-22 -7 -23 -14 -5 -4 11 -5 30 -2 43 3 12 -2 34 -12 49 l-17 26 -14 -33 c-16
-38 -19 -104 -4 -95 6 3 10 1 10 -4 0 -6 -5 -11 -11 -11 -8 0 -9 -13 -5 -41 4
-26 3 -38 -3 -34 -15 9 -24 -40 -17 -85 3 -22 3 -40 -2 -40 -4 0 -16 -16 -26
-35 -12 -22 -27 -35 -39 -35 -16 0 -19 6 -15 45 2 35 0 45 -12 45 -12 1 -12 2
2 10 13 8 16 26 17 85 0 42 -3 74 -7 71 -8 -5 -6 95 4 172 4 35 12 47 42 67
l37 25 -110 0 c-109 -1 -110 -1 -87 -19 26 -22 27 -36 7 -84 -8 -19 -12 -37
-10 -39 3 -2 -4 -23 -15 -46 -11 -22 -20 -45 -20 -51 0 -15 -16 -22 -34 -15
-25 10 -46 58 -46 107 0 38 6 50 40 86 22 22 40 46 40 51 0 7 -287 10 -840 10
-486 0 -840 -4 -840 -9 0 -12 27 -22 44 -15 8 3 15 -3 18 -13 6 -26 -2 -54
-13 -47 -5 3 -7 9 -4 14 7 12 -23 33 -38 27 -18 -7 -34 -301 -19 -320 7 -8 5
-16 -4 -25 -9 -8 -14 -9 -14 -2 0 6 -10 15 -22 20 -22 8 -22 9 -2 9 20 1 21 8
28 154 4 85 4 161 1 170 -4 8 -20 20 -36 26 -32 11 -34 9 -42 -39 -3 -17 -5
-14 -6 13 l-1 37 -45 0 -46 0 3 -62z m3478 9 c0 -28 -17 -47 -42 -47 -10 0
-18 -4 -18 -10 0 -5 -9 -10 -20 -10 -23 0 -24 1 -9 34 7 14 16 23 20 20 5 -3
9 2 9 10 0 13 16 22 48 25 6 0 12 -9 12 -22z m-823 -69 c-8 -70 -12 -78 -31
-78 -11 0 -27 4 -34 9 -19 11 -40 78 -34 106 4 22 8 24 47 19 34 -5 43 -3 49
11 12 33 13 11 3 -67z m-396 44 c9 2 15 -9 17 -32 l2 -35 -17 28 c-10 15 -23
27 -30 27 -7 0 -13 10 -13 23 1 21 1 21 14 4 8 -10 20 -16 27 -15z m-1951 -2
c0 -5 -2 -10 -4 -10 -3 0 -8 5 -11 10 -3 6 -1 10 4 10 6 0 11 -4 11 -10z
m1260 -90 c-10 -19 -9 -21 12 -19 13 2 29 0 36 -4 22 -15 12 -27 -21 -27 -25
0 -37 6 -47 24 -10 20 -18 24 -41 19 -53 -10 -33 38 31 76 l35 21 3 -35 c2
-19 -2 -44 -8 -55z m1297 58 c-3 -8 -6 -5 -6 6 -1 11 2 17 5 13 3 -3 4 -12 1
-19z m-522 -18 c8 -16 15 -44 14 -62 -1 -33 -1 -33 -15 11 -7 24 -16 52 -19
62 -10 29 3 22 20 -11z m-555 -32 c0 -10 -11 -10 -29 1 -9 6 -11 16 -7 27 7
18 8 18 22 0 8 -11 14 -23 14 -28z m1104 -28 c-7 -6 -24 22 -23 40 0 9 6 5 14
-10 7 -14 11 -27 9 -30z m389 -5 c45 -9 51 -35 7 -35 -19 0 -38 9 -55 27 -28
31 -34 55 -7 30 9 -8 34 -18 55 -22z m277 -31 c-8 -25 -16 -34 -27 -30 -8 3
-19 6 -24 6 -21 0 -7 37 23 62 38 31 47 20 28 -38z m407 24 c-3 -7 -5 -2 -5
12 0 14 2 19 5 13 2 -7 2 -19 0 -25z m-3807 12 c0 -5 -7 -7 -15 -4 -8 4 -15 8
-15 10 0 2 7 4 15 4 8 0 15 -4 15 -10z m3565 0 c3 -5 2 -17 -3 -26 -8 -14 -10
-14 -21 0 -13 15 -8 36 9 36 5 0 12 -4 15 -10z m-3465 -30 c0 -5 -7 -7 -15 -4
-8 4 -12 10 -9 15 6 11 24 2 24 -11z m1410 -60 c48 0 56 -7 52 -46 -4 -34 -5
-35 -45 -32 -37 3 -41 6 -54 43 -11 32 -11 45 -1 65 l12 25 4 -27 c3 -23 8
-28 32 -28z m957 30 c27 0 60 -74 43 -95 -7 -8 -21 -15 -31 -15 -21 0 -109 80
-109 99 0 17 42 30 62 20 9 -5 25 -9 35 -9z m-221 -33 c30 5 36 3 41 -16 5
-20 6 -21 20 -4 13 16 14 13 8 -32 -14 -109 -9 -150 21 -186 18 -21 18 -90 -1
-115 -13 -18 -14 -16 -15 22 0 61 -11 104 -25 104 -8 0 -16 18 -21 43 -7 39
-8 40 -14 15 -5 -14 -11 -54 -15 -87 -7 -64 -22 -88 -32 -52 -5 20 -7 20 -36
-9 -17 -16 -32 -28 -35 -26 -11 11 12 66 34 80 13 9 24 25 24 36 0 11 6 20 14
20 21 0 28 29 12 58 -25 50 -36 99 -29 133 3 18 8 28 10 22 3 -7 17 -9 39 -6z
m1470 -14 c-10 -10 -19 5 -10 18 6 11 8 11 12 0 2 -7 1 -15 -2 -18z m-1859
-15 c-3 -7 -5 -2 -5 12 0 14 2 19 5 13 2 -7 2 -19 0 -25z m240 0 c-3 -7 -5 -2
-5 12 0 14 2 19 5 13 2 -7 2 -19 0 -25z m-1888 -58 c-1 -56 -15 -127 -19 -100
-1 8 -2 18 -1 22 0 4 1 41 2 83 1 48 5 72 10 64 5 -8 8 -39 8 -69z m1958 58
c-3 -8 -6 -5 -6 6 -1 11 2 17 5 13 3 -3 4 -12 1 -19z m1883 -19 c0 -38 -1 -39
-34 -39 -33 0 -46 13 -46 46 0 15 26 29 61 31 16 2 19 -5 19 -38z m-2350 21
c13 -7 21 -26 26 -60 4 -33 11 -50 20 -50 18 0 18 -11 -1 -36 -14 -18 -16 -18
-26 -1 -5 9 -14 15 -20 12 -15 -10 -49 5 -49 21 0 8 -4 14 -10 14 -15 0 -12
19 11 67 23 48 22 47 49 33z m358 -142 c20 -49 32 -32 31 43 -1 38 2 73 5 76
3 4 6 -35 6 -85 0 -85 -1 -92 -20 -92 -11 0 -25 -9 -32 -20 -7 -11 -18 -20
-25 -20 -19 0 -16 9 8 29 21 17 21 18 5 94 -8 42 -12 85 -8 94 5 12 9 -1 13
-37 3 -30 11 -67 17 -82z m1041 100 c12 -21 13 -31 3 -53 -14 -30 -26 -26 -53
19 -10 17 -19 25 -19 17 0 -7 -6 -11 -14 -8 -8 3 -20 -1 -26 -8 -12 -15 -30
-12 -30 5 0 5 12 20 27 34 37 34 91 32 112 -6z m-1239 6 c0 -8 -5 -12 -10 -9
-6 4 -8 11 -5 16 9 14 15 11 15 -7z m2820 1 c11 -13 8 -15 -13 -15 -19 0 -25
4 -21 15 4 8 10 15 14 15 4 0 13 -7 20 -15z m-336 -31 c-1 -18 -16 -64 -21
-64 -10 0 -42 46 -43 61 0 13 8 16 33 14 17 -1 32 -6 31 -11z m398 -1 c22 -19
25 -41 3 -23 -8 7 -15 9 -15 4 0 -11 -20 18 -20 29 0 12 12 8 32 -10z m-4814
-167 c-4 -6 -7 28 -6 75 l1 84 7 -75 c3 -41 3 -79 -2 -84z m4493 111 c-8 -8
-11 -5 -11 9 0 27 14 41 18 19 2 -9 -1 -22 -7 -28z m-4321 23 c0 -5 -2 -10 -4
-10 -3 0 -8 5 -11 10 -3 6 -1 10 4 10 6 0 11 -4 11 -10z m1051 -19 c-7 -11
-15 -20 -19 -19 -4 1 -20 -6 -35 -17 -32 -21 -87 -30 -87 -15 0 6 5 10 11 10
6 0 18 9 28 21 10 12 33 23 56 26 22 3 42 9 44 15 1 5 5 7 8 4 2 -2 0 -14 -6
-25z m53 4 c-6 -16 -24 -21 -24 -7 0 11 11 22 21 22 5 0 6 -7 3 -15z m3392
-88 c11 -36 -7 -75 -47 -103 -33 -23 -45 -26 -67 -18 -22 8 -27 16 -27 45 0
20 -6 43 -14 53 -17 20 -19 19 54 43 64 21 89 16 101 -20z m-2476 -72 c0 -56
-14 -81 -25 -45 -8 26 5 111 16 104 5 -3 9 -29 9 -59z m850 46 c10 -20 4 -51
-10 -51 -4 0 -20 -11 -36 -25 -35 -30 -87 -35 -82 -7 2 11 14 18 36 20 20 2
35 10 38 20 21 65 35 77 54 43z m-2945 -10 c3 -5 1 -12 -5 -16 -5 -3 -10 1
-10 9 0 18 6 21 15 7z m4669 -50 c-6 -6 -24 19 -24 34 1 6 7 1 15 -9 8 -11 12
-22 9 -25z m-4677 -53 c-3 -7 -5 -2 -5 12 0 14 2 19 5 13 2 -7 2 -19 0 -25z
m3580 -58 c1 -40 -3 -51 -18 -55 -11 -4 -19 -11 -19 -16 0 -5 -4 -9 -10 -9
-13 0 -13 35 -1 58 6 9 12 29 16 45 10 47 31 32 32 -23z m-1249 27 c8 -10 6
-13 -7 -13 -10 0 -18 6 -18 13 0 7 4 13 7 13 4 0 12 -6 18 -13z m-46 -26 c21
-20 38 -89 20 -77 -7 4 -12 16 -12 27 0 10 -4 19 -10 19 -5 0 -10 -4 -10 -10
0 -5 -3 -10 -7 -10 -18 1 -31 17 -38 48 -7 32 -6 34 16 27 12 -4 31 -15 41
-24z m2577 -8 c0 -10 -4 -27 -8 -38 -7 -17 -9 -16 -13 10 -4 17 -4 33 -1 37 8
15 23 8 22 -9z m-2498 -15 c11 -21 11 -22 -4 -9 -10 7 -17 17 -17 22 0 15 9
10 21 -13z m2129 0 c12 -13 18 -29 14 -40 -3 -12 0 -18 10 -18 9 0 16 5 16 11
0 13 24 -10 32 -32 5 -14 -3 -18 -49 -24 -30 -4 -57 -4 -61 -1 -3 4 -1 21 5
39 7 17 9 44 6 60 -6 33 0 34 27 5z m245 -18 c3 -5 1 -10 -4 -10 -6 0 -11 5
-11 10 0 6 2 10 4 10 3 0 8 -4 11 -10z m-2075 -4 c0 -3 -4 -8 -10 -11 -5 -3
-10 -1 -10 4 0 6 5 11 10 11 6 0 10 -2 10 -4z m2046 -8 c4 -7 4 -10 -1 -6 -9
9 -37 -18 -52 -51 l-11 -26 -1 24 c-1 13 10 34 25 47 29 28 30 28 40 12z
m-2287 -41 c-1 -31 -1 -31 -9 -7 -11 36 -11 52 0 45 6 -3 10 -21 9 -38z m641
25 c0 -5 -7 -17 -15 -28 -14 -19 -14 -19 -15 2 0 11 3 24 7 27 9 10 23 9 23
-1z m1317 -14 c-3 -8 -6 -5 -6 6 -1 11 2 17 5 13 3 -3 4 -12 1 -19z m-963 -39
c-2 -44 -1 -46 39 -65 67 -31 75 -73 19 -99 -12 -5 -22 -19 -22 -30 -1 -19 -1
-19 -15 -1 -8 10 -25 24 -37 30 -24 13 -25 18 -15 79 6 36 5 37 -24 37 -25 0
-29 4 -29 28 0 42 27 74 58 70 25 -3 27 -6 26 -49z m-718 -24 c12 -8 24 -11
28 -8 3 3 6 1 6 -5 0 -7 -4 -12 -10 -12 -16 0 -12 -26 6 -41 14 -11 16 -10 14
6 -1 11 -2 29 -1 40 1 17 3 17 11 5 8 -15 13 -116 10 -205 -1 -32 -3 -36 -10
-20 -6 14 -9 -1 -11 -50 -1 -38 -4 -55 -6 -37 -4 31 -5 32 -18 15 -12 -16 -13
-13 -5 22 5 22 12 70 15 107 6 59 5 69 -14 89 -27 29 -34 20 -37 -42 -1 -28
-8 -62 -15 -75 -10 -20 -10 -29 1 -49 11 -20 11 -27 0 -40 -15 -18 -22 -10
-34 38 -4 19 -3 26 4 22 11 -7 13 17 4 64 -9 44 -23 39 -18 -6 3 -28 1 -33 -5
-18 -8 18 -10 16 -19 -15 -10 -33 -10 -33 -11 -7 -1 15 -7 27 -13 27 -9 0 -9
3 -2 8 6 4 18 33 26 65 14 48 14 57 2 57 -8 0 -14 -8 -14 -17 0 -10 -9 -29
-19 -42 -10 -14 -17 -31 -14 -38 6 -15 -13 -18 -22 -3 -5 9 30 89 44 100 12
10 31 62 26 71 -10 15 79 10 101 -6z m1644 -15 c0 -11 -7 -20 -15 -20 -15 0
-21 21 -8 33 12 13 23 7 23 -13z m-1006 -161 c-8 -14 -34 -11 -34 4 0 8 3 17
7 20 9 9 34 -13 27 -24z m-140 -11 c-3 -4 0 -8 5 -8 6 0 11 6 12 13 0 6 4 3 9
-8 12 -29 12 -32 -7 -51 -16 -15 -18 -34 -15 -153 2 -75 2 -134 -1 -131 -3 3
-6 48 -8 100 -3 104 -11 132 -34 124 -10 -4 -15 0 -15 15 0 12 -4 21 -10 21
-9 0 -6 -131 5 -195 4 -24 3 -26 -4 -10 -5 11 -10 34 -11 50 l-2 30 -8 -30
c-4 -16 -8 -48 -9 -69 -1 -43 -14 -42 -17 2 -5 78 -5 79 -13 57 -5 -11 -11
-54 -14 -95 -3 -41 -2 -64 2 -50 6 18 8 9 7 -30 -1 -45 4 -63 29 -99 l30 -45
6 60 5 59 5 -55 c3 -48 0 -96 -15 -203 -2 -15 0 -30 5 -33 14 -9 10 -57 -8
-79 -15 -19 -15 -19 -9 10 4 17 9 38 13 49 3 12 1 16 -6 12 -6 -4 -11 -14 -11
-22 0 -8 -5 -14 -10 -14 -7 0 -8 31 -3 87 4 64 3 84 -5 79 -7 -4 -12 -15 -12
-24 0 -12 -3 -13 -11 -5 -9 9 -9 19 1 42 7 17 9 39 5 48 -18 42 -21 -54 -10
-268 6 -123 8 -228 3 -234 -4 -5 -8 14 -8 43 0 29 -4 52 -10 52 -5 0 -10 -24
-10 -54 0 -35 -5 -58 -15 -66 -11 -9 -12 -17 -4 -33 14 -24 7 -173 -8 -188 -7
-7 -9 22 -6 95 4 72 2 106 -6 106 -12 0 -3 63 11 68 11 5 10 139 -1 146 -5 3
-11 24 -13 47 -3 39 -3 40 10 20 25 -38 34 -24 29 47 -3 37 -6 115 -7 175 -1
59 -6 110 -11 113 -17 10 -9 22 11 17 25 -7 26 8 0 38 -16 21 -19 21 -20 6 0
-10 -7 -29 -16 -42 -11 -17 -15 -46 -14 -97 3 -200 1 -250 -9 -243 -6 3 -11
-1 -11 -10 0 -8 7 -18 15 -21 17 -7 21 -44 5 -44 -5 0 -10 4 -10 8 0 5 -7 17
-15 28 -14 17 -15 14 -14 -46 1 -36 -2 -87 -6 -115 -7 -43 -6 -48 7 -38 22 18
26 -161 4 -186 -8 -9 -18 -32 -21 -50 -3 -19 -9 -39 -13 -45 -3 -6 -9 -31 -12
-56 -4 -30 -10 -44 -19 -42 -7 1 -19 -2 -27 -9 -11 -9 -16 -6 -24 16 -6 16 -9
33 -6 39 2 6 5 3 5 -7 1 -26 25 -15 29 13 3 16 0 21 -10 18 -9 -4 -13 3 -13
21 -1 14 -4 42 -8 61 -7 33 -6 32 19 -14 25 -47 27 -49 41 -30 8 10 13 33 11
51 -2 17 0 31 6 30 30 -6 50 118 21 129 -9 4 -15 19 -15 36 0 17 -4 27 -10 23
-6 -4 -8 -22 -5 -43 4 -20 8 -48 10 -62 2 -14 2 -19 -1 -12 -3 6 -12 12 -20
12 -8 0 -14 9 -14 19 0 27 -10 51 -22 51 -6 0 -8 -10 -5 -22 6 -22 5 -22 -8
-4 -14 18 -15 16 -12 -27 1 -26 -1 -47 -5 -47 -4 0 -8 5 -8 10 0 7 -6 7 -20 0
-11 -6 -20 -17 -20 -24 0 -8 -6 -25 -13 -38 -20 -39 -33 -12 -29 59 3 42 1 63
-7 63 -6 0 -11 6 -11 14 0 7 -6 19 -13 25 -11 8 -16 5 -25 -15 -7 -14 -12 -36
-12 -50 0 -14 -4 -23 -8 -20 -5 3 -5 27 -1 53 4 26 8 71 8 99 1 41 7 59 31 89
17 21 30 42 30 47 0 5 9 18 19 29 20 22 41 117 41 187 0 23 4 42 9 42 15 0 17
-21 8 -75 -6 -33 -6 -66 0 -91 l10 -39 11 27 c8 18 20 28 39 30 17 2 32 12 39
27 7 13 24 33 38 45 23 19 25 28 28 116 4 98 7 121 21 131 5 3 4 26 -1 50
l-10 44 -1 -37 c-1 -20 -5 -40 -11 -43 -13 -8 -13 50 -1 73 11 20 42 181 46
232 1 18 7 36 14 38 6 2 11 9 11 15 1 16 58 72 66 65 3 -4 -3 -15 -15 -27 -28
-28 -53 -79 -48 -99 3 -13 7 -9 16 13 16 40 50 75 73 75 11 0 18 7 18 19 0 25
41 56 51 39 4 -7 5 -16 3 -20z m-2854 -35 c0 -26 -31 -83 -46 -83 -6 0 -11
-19 -12 -42 -1 -64 -32 -188 -46 -188 -10 0 -9 13 3 58 11 43 12 68 5 93 l-10
34 -18 -58 c-25 -81 -46 -73 -46 19 0 50 -6 53 -44 23 -14 -11 -26 -16 -26
-11 0 14 56 72 69 72 6 0 32 20 59 45 31 30 53 43 65 39 12 -4 17 0 17 14 0
10 3 22 7 25 9 10 23 -13 23 -40z m4350 21 c0 -14 -4 -23 -10 -19 -5 3 -10 15
-10 26 0 10 5 19 10 19 6 0 10 -12 10 -26z m-906 -6 c15 -17 16 -25 7 -40 -6
-10 -11 -26 -11 -36 0 -29 -10 -32 -45 -12 -19 11 -36 15 -42 9 -12 -12 -73
26 -73 46 0 10 10 15 28 15 16 0 39 9 52 20 30 26 61 25 84 -2z m209 -51 c6
-43 2 -45 -17 -8 -20 37 -20 52 -2 45 8 -3 16 -20 19 -37z m59 11 c-6 -6 -15
-8 -19 -4 -4 4 -1 11 7 16 19 12 27 3 12 -12z m690 -32 c2 -12 2 -46 -1 -76
l-6 -55 -28 37 c-27 35 -30 36 -51 22 -41 -26 -77 6 -55 49 6 12 22 31 36 43
21 18 29 20 63 11 26 -7 40 -17 42 -31z m-1427 -43 c7 -54 24 -103 35 -103 4
0 12 -11 18 -25 15 -32 16 -99 2 -90 -5 3 -10 24 -10 46 0 21 -5 39 -11 39 -6
0 -8 -16 -4 -44 4 -28 2 -59 -6 -83 l-13 -38 -12 40 c-7 22 -12 51 -12 65 0
22 1 20 13 -10 l13 -35 1 31 c1 36 -24 211 -34 237 -4 9 -3 17 3 17 6 0 14
-21 17 -47z m687 3 c12 -18 -3 -27 -34 -22 -40 6 -58 24 -38 36 17 10 62 2 72
-14z m-588 -9 c8 -12 7 -20 -1 -28 -16 -16 -33 -2 -33 27 0 28 17 28 34 1z
m-3734 2 c0 -22 -23 -99 -30 -99 -13 0 -33 54 -21 58 6 2 8 8 5 13 -3 6 0 16
6 24 14 17 40 20 40 4z m3091 -51 c-14 -39 -14 -88 -1 -88 6 0 10 8 10 19 0
10 7 24 15 31 13 11 14 8 9 -18 -6 -28 -4 -30 15 -25 23 6 28 32 9 52 -11 10
-9 16 10 28 12 9 22 21 22 28 0 7 14 18 31 24 35 12 59 1 59 -26 0 -12 -3 -13
-15 -3 -21 17 -29 -25 -22 -111 3 -39 2 -71 -4 -74 -10 -7 -11 6 -10 75 2 72
-15 26 -22 -59 -3 -40 -8 -76 -11 -78 -3 -3 -15 5 -28 16 -19 18 -20 23 -8 31
8 5 18 6 22 4 4 -3 8 -1 8 5 0 5 -10 13 -22 17 -13 4 -28 14 -34 22 -6 8 -21
15 -35 16 -37 2 -37 38 -1 161 5 18 6 18 10 2 2 -10 -1 -32 -7 -49z m489 28
c0 -13 7 -26 15 -30 17 -6 20 -51 5 -61 -13 -8 -40 54 -40 90 0 14 5 25 10 25
6 0 10 -11 10 -24z m1560 -15 c0 -9 -6 -25 -13 -35 -13 -17 -14 -17 -20 -2 -8
19 12 68 24 60 5 -3 9 -13 9 -23z m-960 -1 c0 -5 -4 -10 -10 -10 -5 0 -10 5
-10 10 0 6 5 10 10 10 6 0 10 -4 10 -10z m-3920 -46 c0 -21 -27 -17 -33 5 -3
14 0 17 14 14 11 -3 19 -12 19 -19z m3026 -51 c-10 -10 -19 5 -10 18 6 11 8
11 12 0 2 -7 1 -15 -2 -18z m293 10 c0 -5 -7 -24 -14 -43 -13 -33 -14 -34 -14
-8 -1 32 8 58 20 58 5 0 9 -3 8 -7z m-4359 -33 c0 -5 9 -10 20 -10 11 0 20 5
20 10 0 15 26 12 39 -4 12 -14 51 -18 51 -5 0 9 49 -2 56 -13 3 -5 12 -4 20 3
11 9 21 9 40 1 13 -7 55 -14 91 -18 108 -9 110 -23 4 -23 -53 0 -102 5 -112
12 -14 8 -21 9 -30 0 -12 -12 -49 -6 -49 9 0 6 -11 7 -24 4 -14 -3 -28 -1 -32
5 -5 8 -9 7 -15 -3 -14 -26 -99 -6 -99 23 0 11 5 19 10 19 6 0 10 -4 10 -10z
m-40 -15 c-7 -8 -16 -15 -21 -15 -5 0 -9 7 -9 15 0 9 9 15 21 15 18 0 19 -2 9
-15z m4747 -2 c3 -10 14 -26 24 -36 10 -9 16 -24 13 -32 -7 -17 -24 -20 -24
-5 0 12 -57 42 -63 32 -2 -4 -3 -2 -1 4 1 6 -2 17 -6 24 -12 20 -3 30 26 30
14 0 27 -7 31 -17z m-210 -30 c-3 -10 -5 -4 -5 12 0 17 2 24 5 18 2 -7 2 -21
0 -30z m-3210 -5 c-3 -8 -6 -5 -6 6 -1 11 2 17 5 13 3 -3 4 -12 1 -19z m-816
-3 c-1 -15 -24 -12 -29 3 -3 9 2 13 12 10 10 -1 17 -7 17 -13z m4639 5 c0 -5
-5 -10 -11 -10 -5 0 -7 5 -4 10 3 6 8 10 11 10 2 0 4 -4 4 -10z m-774 -105
c-1 -57 -5 -107 -9 -111 -4 -4 -7 40 -7 98 0 88 4 118 15 118 1 0 1 -47 1
-105z m-3713 76 c4 -4 4 -28 1 -54 -8 -54 -14 -54 -23 0 -5 28 -12 38 -24 37
-9 -1 -17 4 -17 11 0 7 -6 16 -12 19 -7 3 5 3 27 0 22 -3 43 -9 48 -13z m4384
11 c7 -5 9 -13 3 -22 -7 -11 -11 -11 -24 -1 -24 20 -6 40 21 23z m-1118 -64
c7 -29 17 -76 23 -105 8 -36 15 -50 24 -46 9 3 14 -2 14 -17 0 -16 4 -20 15
-16 11 4 15 -1 15 -19 0 -14 5 -25 10 -25 6 0 10 -4 10 -10 0 -17 -28 -11 -39
8 -8 15 -11 13 -21 -13 -8 -18 -14 -25 -17 -17 -3 8 0 19 6 25 17 17 14 58 -3
51 -25 -9 -44 54 -61 194 -8 68 9 61 24 -10z m-2754 25 c-19 -13 -35 -17 -35
-9 0 12 33 35 42 30 7 -5 4 -12 -7 -21z m65 -3 c0 -5 -7 -7 -15 -4 -8 4 -12
10 -9 15 6 11 24 2 24 -11z m4270 1 c0 -23 -17 -36 -45 -36 -11 0 -20 -6 -20
-13 0 -15 -26 -33 -37 -26 -19 12 -6 42 27 60 19 10 35 22 35 26 0 5 9 8 20 8
13 0 20 -7 20 -19z m-979 -34 c-8 -8 -11 -3 -11 19 1 25 2 27 11 11 8 -14 8
-22 0 -30z m489 13 c0 -5 -5 -10 -11 -10 -5 0 -7 5 -4 10 3 6 8 10 11 10 2 0
4 -4 4 -10z m-3630 -36 c0 -8 -4 -12 -10 -9 -5 3 -10 10 -10 16 0 5 5 9 10 9
6 0 10 -7 10 -16z m3204 -72 l-7 -57 -13 50 c-16 61 -17 88 -4 80 6 -3 10 0
10 7 0 8 5 6 11 -5 6 -11 8 -40 3 -75z m-6001 19 c-6 -3 -15 -15 -22 -26 -10
-17 -12 -17 -7 -2 3 10 6 28 6 38 0 11 5 17 10 14 6 -3 11 0 11 7 1 7 3 5 6
-6 3 -10 1 -21 -4 -25z m7338 -12 c-6 -18 -11 -50 -11 -73 0 -47 -12 -72 -30
-61 -22 13 -8 121 20 150 29 31 36 26 21 -16z m-413 8 c2 -12 -3 -17 -17 -17
-15 0 -21 6 -21 21 0 25 33 22 38 -4z m-1106 -9 c-7 -7 -12 -8 -12 -2 0 14 12
26 19 19 2 -3 -1 -11 -7 -17z m105 -35 c-3 -10 -5 -4 -5 12 0 17 2 24 5 18 2
-7 2 -21 0 -30z m-189 15 c19 -19 15 -48 -8 -48 -16 0 -20 7 -20 30 0 32 9 37
28 18z m1146 -33 c3 -9 0 -15 -9 -15 -8 0 -15 7 -15 15 0 8 4 15 9 15 5 0 11
-7 15 -15z m-1109 -80 c-9 -61 -65 -117 -65 -65 0 13 7 20 18 20 26 0 43 43
37 93 -5 37 -4 39 5 17 6 -14 9 -43 5 -65z m45 75 c0 -5 -5 -10 -11 -10 -5 0
-7 5 -4 10 3 6 8 10 11 10 2 0 4 -4 4 -10z m66 -13 c0 -7 2 -25 2 -40 3 -40
22 -23 24 21 1 36 1 36 5 5 2 -17 -2 -53 -10 -80 l-14 -48 -7 50 c-8 54 -26
97 -26 62 0 -10 -4 -16 -9 -12 -5 3 -12 -7 -14 -22 -3 -16 -4 -8 -3 17 1 31 5
44 14 42 7 -1 15 5 19 13 6 17 17 12 19 -8z m-3330 -157 c-8 -36 -14 -55 -15
-43 -1 29 21 131 26 118 2 -6 -3 -40 -11 -75z m4694 65 c0 -17 -2 -18 -24 -9
-23 9 -20 24 4 24 11 0 20 -7 20 -15z m180 -4 c0 -17 -18 -21 -24 -6 -3 9 0
15 9 15 8 0 15 -4 15 -9z m-4150 -35 c-6 -6 -15 -4 -25 4 -23 19 -18 29 9 17
15 -7 21 -16 16 -21z m4069 6 c30 -25 32 -30 24 -62 -9 -35 -9 -35 -71 -37
-61 -1 -62 -1 -62 26 0 18 10 37 30 54 17 15 30 32 30 37 0 17 14 11 49 -18z
m-1982 -19 c-3 -10 -5 -4 -5 12 0 17 2 24 5 18 2 -7 2 -21 0 -30z m-4070 -70
c-2 -16 -4 -5 -4 22 0 28 2 40 4 28 2 -13 2 -35 0 -50z m1323 52 c0 -8 -4 -15
-10 -15 -5 0 -7 7 -4 15 4 8 8 15 10 15 2 0 4 -7 4 -15z m4552 -7 c-7 -7 -12
-8 -12 -2 0 14 12 26 19 19 2 -3 -1 -11 -7 -17z m-1286 -65 c-3 -3 -10 5 -15
18 -8 21 -10 22 -16 7 -7 -18 -4 -64 14 -178 7 -49 6 -68 -4 -82 -12 -18 -13
-18 -19 4 -3 13 -6 43 -6 67 0 42 -1 43 -15 25 -13 -18 -14 -16 -16 21 -1 34
-2 36 -8 15 -5 -15 -2 -41 7 -65 9 -26 12 -60 8 -97 -4 -40 -2 -58 7 -61 9 -3
9 -10 -1 -31 -6 -15 -12 -47 -12 -71 0 -35 3 -43 15 -39 11 5 13 2 9 -10 -3
-9 -10 -16 -15 -16 -5 0 -9 -15 -9 -32 0 -18 -5 -40 -10 -48 -8 -12 -10 -11
-10 7 0 12 -5 23 -12 25 -8 3 -9 11 -3 24 5 10 10 44 11 74 1 30 4 98 8 150 5
87 4 92 -9 65 -8 -16 -14 -43 -15 -58 0 -31 -24 -62 -40 -52 -16 10 -12 23 8
21 14 -1 17 6 15 37 -2 23 1 35 7 32 6 -4 10 21 10 64 0 78 12 121 34 121 14
0 21 17 42 104 l7 28 20 -31 c11 -18 17 -35 13 -38z m-5882 41 c8 -20 -1 -845
-15 -1414 -12 -483 -14 -954 -5 -1190 7 -166 1 -199 -30 -168 -15 15 -17 45
-15 289 1 150 4 276 6 279 8 13 16 504 20 1325 3 473 8 868 11 878 7 21 20 22
28 1z m5963 -86 c-2 -13 -4 -3 -4 22 0 25 2 35 4 23 2 -13 2 -33 0 -45z m-215
0 c-10 -22 -11 -21 -11 12 -1 26 2 31 11 22 8 -8 8 -17 0 -34z m-65 0 c-3 -8
-6 -5 -6 6 -1 11 2 17 5 13 3 -3 4 -12 1 -19z m-4390 -25 c-3 -10 -5 -4 -5 12
0 17 2 24 5 18 2 -7 2 -21 0 -30z m4621 -27 c-6 -48 4 -66 37 -66 30 0 47 -45
50 -135 1 -44 1 -60 -1 -35 -7 76 -15 111 -25 105 -5 -4 -9 -17 -9 -30 0 -13
-4 -27 -10 -30 -5 -3 -10 -15 -10 -26 0 -10 -4 -19 -9 -19 -5 0 -12 36 -16 80
-4 48 -12 84 -21 91 -16 13 -19 39 -4 39 6 0 10 16 10 35 0 19 3 35 6 35 4 0
4 -20 2 -44z m-217 -29 c-8 -8 -11 -4 -11 14 0 33 14 47 18 19 2 -12 -1 -27
-7 -33z m782 33 c5 -4 10 -23 10 -41 2 -31 0 -34 -28 -34 -23 0 -33 7 -43 27
-24 51 20 86 61 48z m-953 -5 c0 -8 -4 -15 -9 -15 -13 0 -22 16 -14 24 11 11
23 6 23 -9z m1901 -78 c-11 -12 -24 -18 -27 -14 -10 10 27 48 38 41 6 -4 1
-16 -11 -27z m-2250 -44 c-9 -16 -10 -16 -11 4 0 12 3 30 7 40 7 16 8 16 11
-4 2 -12 -1 -30 -7 -40z m531 34 c-15 -16 -22 -36 -22 -63 0 -27 -3 -35 -9
-24 -19 29 13 110 42 110 6 0 1 -10 -11 -23z m696 1 c2 -10 -12 -33 -31 -51
l-34 -34 -12 31 c-10 28 -9 33 15 54 29 26 57 26 62 0z m-751 -30 c-3 -7 -5
-2 -5 12 0 14 2 19 5 13 2 -7 2 -19 0 -25z m-4988 -75 c1 -34 -13 -52 -22 -29
-3 7 -3 33 0 57 5 34 8 39 14 24 4 -11 8 -34 8 -52z m4491 -1 c0 -13 -4 -20
-10 -17 -5 3 -10 21 -10 38 0 24 3 28 10 17 5 -8 10 -25 10 -38z m1005 8 c3
-5 -7 -17 -22 -26 -15 -10 -38 -29 -50 -43 -21 -24 -23 -24 -23 -6 0 23 26 58
55 73 25 14 32 15 40 2z m-3738 -42 c-3 -7 -5 -2 -5 12 0 14 2 19 5 13 2 -7 2
-19 0 -25z m3420 10 c-3 -8 -6 -5 -6 6 -1 11 2 17 5 13 3 -3 4 -12 1 -19z
m-417 -24 c0 -8 -5 -12 -10 -9 -6 4 -8 11 -5 16 9 14 15 11 15 -7z m248 -9
c-2 -14 -7 -25 -13 -25 -15 1 -24 -60 -13 -89 6 -14 14 -66 19 -116 4 -49 10
-112 13 -140 l5 -50 -10 53 c-11 54 -25 68 -31 30 -2 -13 -6 1 -9 30 -3 40 -1
51 9 47 11 -4 12 7 7 53 -9 74 -14 94 -26 87 -11 -8 -12 7 0 37 5 13 15 42 22
66 13 46 32 58 27 17z m-4367 -644 c0 -80 -5 -169 -11 -200 -6 -33 -10 -309
-10 -714 0 -522 -3 -658 -12 -655 -15 5 -27 396 -16 493 13 103 11 835 -1 882
-11 39 -12 76 -12 286 0 38 7 97 15 130 15 62 23 165 28 347 3 123 20 -380 19
-569z m3443 613 c4 -9 4 -19 2 -21 -8 -8 -26 8 -26 23 0 19 16 18 24 -2z
m1299 2 c6 -16 -2 -28 -14 -20 -12 7 -11 34 0 34 5 0 11 -6 14 -14z m-103 -15
c0 -23 16 -36 25 -21 12 19 22 1 17 -30 -6 -39 -21 -34 -49 16 -26 48 -27 54
-8 54 8 0 15 -9 15 -19z m-5313 -23 c-3 -7 -5 -2 -5 12 0 14 2 19 5 13 2 -7 2
-19 0 -25z m1258 -135 c-5 -176 -13 -222 -28 -158 -13 58 -20 243 -9 226 13
-19 25 3 17 30 -8 26 2 72 15 64 5 -3 7 -73 5 -162z m3635 151 c0 -8 -5 -12
-10 -9 -6 4 -8 11 -5 16 9 14 15 11 15 -7z m-441 -47 c1 -5 -3 -5 -9 -2 -5 3
-10 16 -9 28 0 21 1 21 9 2 5 -11 9 -24 9 -28z m821 39 c0 -1 4 -16 10 -34 7
-28 7 -32 -5 -22 -20 17 -28 -5 -12 -32 8 -13 13 -32 11 -43 -10 -65 -32 -156
-39 -163 -7 -7 -4 28 11 126 3 23 3 59 -1 78 -6 34 -7 35 -20 18 -13 -17 -14
-15 -15 27 0 44 1 46 30 46 17 0 30 -1 30 -1z m-613 -73 c-3 -10 -5 -4 -5 12
0 17 2 24 5 18 2 -7 2 -21 0 -30z m-4647 -67 c0 -38 -2 -67 -5 -64 -11 10 -26
120 -19 140 11 37 24 -2 24 -76z m5101 72 c0 -19 2 -20 7 -6 4 9 8 -33 8 -95
1 -109 1 -110 -7 -37 -4 41 -12 94 -17 118 -5 23 -5 42 -1 42 5 0 9 -10 10
-22z m488 1 c-7 -4 -13 -26 -13 -49 -1 -30 -5 -40 -16 -37 -9 2 -14 12 -13 25
2 12 -2 22 -7 22 -6 0 -10 6 -10 14 0 20 39 46 57 39 12 -5 12 -7 2 -14z
m-519 -74 c0 -30 -4 -55 -10 -55 -11 0 -14 93 -3 103 12 12 13 8 13 -48z
m-154 18 c-10 -10 -19 5 -10 18 6 11 8 11 12 0 2 -7 1 -15 -2 -18z m840 -28
c-3 -8 -14 -19 -26 -25 -20 -10 -21 -10 -11 8 6 11 7 22 4 26 -3 3 -1 6 5 6 6
0 14 10 18 23 l8 22 4 -23 c2 -13 1 -30 -2 -37z m-456 -33 c0 -15 -2 -15 -10
-2 -13 20 -13 33 0 25 6 -3 10 -14 10 -23z m586 -10 c-9 -8 -26 10 -26 26 1
15 2 15 15 -2 8 -11 13 -21 11 -24z m-689 -4 c-3 -8 -6 -5 -6 6 -1 11 2 17 5
13 3 -3 4 -12 1 -19z m-2287 -8 c13 -8 13 -10 -2 -10 -9 0 -20 5 -23 10 -8 13
5 13 25 0z m2420 -38 c0 -20 -4 -42 -8 -49 -4 -6 -7 13 -8 42 0 30 4 51 8 49
4 -3 8 -22 8 -42z m692 33 c0 -5 -5 -11 -11 -13 -6 -2 -11 4 -11 13 0 9 5 15
11 13 6 -2 11 -8 11 -13z m-960 -57 c-7 -7 -12 -8 -12 -2 0 14 12 26 19 19 2
-3 -1 -11 -7 -17z m637 -126 c63 -65 72 -82 45 -82 -8 0 -30 -11 -48 -25 -18
-14 -37 -25 -43 -25 -13 0 -53 -56 -53 -74 0 -11 6 -10 23 7 49 47 71 59 108
63 30 4 39 1 39 -11 0 -24 13 -17 44 25 29 40 64 52 134 47 28 -2 28 -3 -5
-45 -54 -72 -129 -139 -168 -152 -22 -7 -44 -16 -50 -20 -13 -9 -106 -32 -111
-27 -2 2 -8 21 -13 43 -9 35 -9 32 -8 -31 2 -57 -1 -70 -14 -73 -11 -2 -18 6
-22 26 -5 24 -12 30 -43 35 -20 4 -45 2 -55 -4 -17 -8 -19 -6 -19 20 0 34 -15
48 -33 32 -8 -6 -18 -6 -27 -1 -12 8 -13 13 -2 30 13 22 17 80 4 80 -5 0 -18
13 -29 28 -30 40 -19 76 36 129 62 60 114 85 178 87 29 0 53 6 54 11 0 6 4 1
8 -10 5 -11 36 -48 70 -83z m581 88 c0 -5 -9 -10 -20 -10 -11 0 -20 5 -20 10
0 6 9 10 20 10 11 0 20 -4 20 -10z m-200 -35 c0 -19 -27 -48 -37 -42 -15 9
-22 54 -10 66 11 11 47 -7 47 -24z m-881 -80 c1 -34 6 -66 12 -72 6 -6 9 -21
7 -34 -3 -24 -4 -23 -35 10 -17 18 -36 30 -42 27 -6 -4 -11 -5 -11 -2 0 2 -3
12 -7 21 -5 14 -2 16 16 10 20 -6 22 -5 12 14 -9 17 -8 22 10 31 14 8 20 20
19 38 -1 15 -1 36 0 47 4 39 18 -27 19 -90z m-409 69 c0 -8 -4 -12 -10 -9 -5
3 -10 10 -10 16 0 5 5 9 10 9 6 0 10 -7 10 -16z m1897 -30 c-3 -3 -12 -4 -19
-1 -8 3 -5 6 6 6 11 1 17 -2 13 -5z m-3 -40 c8 -32 -10 -57 -24 -34 -15 23
-12 60 4 60 8 0 17 -12 20 -26z m-1725 -144 c0 -45 -3 -69 -8 -60 -11 20 -22
176 -13 197 10 26 21 -45 21 -137z m271 107 c0 -5 -4 -5 -10 -2 -5 3 -10 14
-10 23 0 15 2 15 10 2 5 -8 10 -19 10 -23z m-5236 -577 l-8 -105 -6 65 c-6 58
5 628 12 640 7 13 8 -507 2 -600z m5058 568 c-7 -7 -12 -8 -12 -2 0 14 12 26
19 19 2 -3 -1 -11 -7 -17z m219 -41 c-13 -13 -15 1 -4 30 7 17 8 17 11 -1 2
-10 -1 -23 -7 -29z m1069 -47 c0 -5 -2 -10 -4 -10 -3 0 -8 5 -11 10 -3 6 -1
10 4 10 6 0 11 -4 11 -10z m-4756 -60 l-14 -55 5 48 c3 27 8 53 11 58 12 21
12 2 -2 -51z m356 14 c-18 -21 -24 -10 -9 18 8 14 14 18 17 10 2 -7 -2 -19 -8
-28z m3075 -22 c-9 -9 -25 11 -25 31 1 21 1 21 15 -3 7 -14 12 -27 10 -28z
m-3467 -57 l0 -30 -8 30 c-4 17 -8 39 -8 50 l-1 20 9 -20 c5 -11 8 -33 8 -50z
m348 -46 c-16 -48 -30 -75 -41 -77 -15 -3 -15 -2 -2 20 8 12 20 41 27 63 15
48 30 78 36 72 2 -2 -7 -37 -20 -78z m4114 -32 c46 -22 53 -53 19 -95 l-21
-27 29 -7 c16 -4 42 -21 59 -38 19 -19 39 -30 59 -30 84 -1 94 -24 37 -85 -66
-69 -85 -78 -161 -71 -36 3 -75 6 -86 7 -19 0 -19 1 -2 13 21 16 22 27 2 20
-9 -4 -18 1 -21 11 -5 13 -9 14 -15 4 -4 -8 -27 -14 -51 -15 -42 -1 -42 -1
-19 15 45 31 71 60 70 78 -1 16 -2 16 -6 1 -5 -20 -33 -13 -33 8 0 24 -20 15
-21 -8 -1 -19 -2 -19 -6 -5 -3 13 -10 16 -21 11 -10 -3 -28 -9 -42 -11 -14 -3
-31 -13 -38 -22 -11 -14 -13 -13 -18 7 -4 12 -11 19 -16 16 -39 -24 -233 35
-205 62 3 4 28 -1 54 -11 26 -9 64 -19 84 -22 35 -5 37 -3 43 29 11 54 65 120
103 124 17 2 44 15 58 28 37 35 106 40 165 13z m-4236 -156 c-4 -17 -9 -30
-11 -27 -3 2 -2 19 2 36 9 41 17 33 9 -9z m3603 33 c-3 -3 -12 -4 -19 -1 -8 3
-5 6 6 6 11 1 17 -2 13 -5z m-1157 -41 c0 -5 -5 -15 -10 -23 -8 -12 -10 -11
-10 8 0 12 5 22 10 22 6 0 10 -3 10 -7z m-2532 -33 c-15 -24 -19 -21 -11 8 3
12 9 19 14 16 5 -3 3 -14 -3 -24z m3688 -57 c-11 -11 -17 4 -9 23 7 18 8 18
11 1 2 -10 1 -21 -2 -24z m-3619 -15 c-3 -8 -6 -5 -6 6 -1 11 2 17 5 13 3 -3
4 -12 1 -19z m411 -21 c-6 -17 -16 -47 -22 -66 -11 -33 -36 -55 -36 -31 0 6
11 36 25 66 14 30 25 59 25 65 0 6 4 8 9 5 6 -4 5 -19 -1 -39z m3072 39 c0 -2
-7 -9 -15 -16 -12 -10 -15 -10 -15 4 0 9 7 16 15 16 8 0 15 -2 15 -4z m195 -6
c3 -5 1 -10 -4 -10 -6 0 -11 5 -11 10 0 6 2 10 4 10 3 0 8 -4 11 -10z m-3548
-52 c-3 -7 -5 -2 -5 12 0 14 2 19 5 13 2 -7 2 -19 0 -25z m3523 24 c0 -13 -12
-22 -22 -16 -10 6 -1 24 13 24 5 0 9 -4 9 -8z m-836 -47 c3 -8 1 -15 -4 -15
-6 0 -10 7 -10 15 0 8 2 15 4 15 2 0 6 -7 10 -15z m-2577 -47 c-3 -8 -6 -5 -6
6 -1 11 2 17 5 13 3 -3 4 -12 1 -19z m3358 -21 c38 -35 46 -49 43 -72 -4 -40
20 -43 92 -11 69 31 96 33 110 6 17 -33 -15 -120 -45 -120 -7 0 -18 -6 -24
-13 -6 -8 -29 -19 -51 -26 -23 -7 -44 -20 -47 -29 -3 -9 -15 -27 -26 -39 -11
-13 -19 -24 -16 -26 2 -2 27 -20 55 -40 82 -59 107 -117 52 -117 -13 0 -31 -7
-40 -14 -30 -23 -122 -4 -159 33 -28 29 -41 33 -109 33 -3 0 -29 -3 -59 -6
l-53 -7 6 25 c8 31 -3 33 -38 5 l-26 -20 0 24 c0 25 -22 52 -33 40 -11 -10 -8
-25 3 -18 15 9 12 -2 -6 -30 -35 -54 -69 -16 -35 39 l22 35 -23 12 c-15 8 -19
14 -10 17 21 7 102 91 102 105 0 7 9 20 20 30 15 13 19 24 14 45 -9 36 -9 33
0 69 8 36 67 93 96 93 10 0 21 4 24 9 3 4 30 9 60 10 51 1 57 -2 101 -42z
m-3276 -80 c1 -42 -15 -24 -23 25 -4 24 -9 54 -12 68 -2 14 4 5 15 -20 11 -25
20 -58 20 -73z m2489 88 c-3 -3 -9 2 -12 12 -6 14 -5 15 5 6 7 -7 10 -15 7
-18z m-2568 -84 c0 -22 -4 -31 -9 -25 -10 9 -14 36 -12 69 2 34 21 -5 21 -44z
m1764 -25 c-5 -33 -61 -89 -80 -82 -7 3 -21 -4 -32 -15 -19 -17 -22 -17 -30
-3 -10 18 -3 74 9 74 5 0 9 6 9 13 0 24 38 50 65 45 14 -3 28 -2 31 3 2 4 11
6 19 3 11 -4 13 -15 9 -38z m731 -22 c-5 -44 -15 -58 -15 -22 0 14 -7 29 -16
32 -14 5 -14 7 0 22 9 8 16 21 16 27 0 7 5 4 10 -5 6 -9 8 -33 5 -54z m1622
10 c-3 -3 -12 -4 -19 -1 -8 3 -5 6 6 6 11 1 17 -2 13 -5z m-6128 -56 c0 -39
-3 -48 -9 -33 -12 28 -12 85 0 85 6 0 10 -24 9 -52z m6047 24 c8 -12 22 -22
30 -22 8 0 14 -5 14 -11 0 -6 11 -20 24 -30 59 -47 56 -171 -7 -245 -20 -24
-39 -24 -132 1 -32 8 -77 15 -98 15 -28 0 -53 10 -95 40 -97 67 -93 63 -91
118 1 28 6 49 11 46 4 -3 13 -2 19 2 8 4 7 9 -2 15 -8 5 -9 9 -3 9 18 0 37
-28 30 -45 -9 -24 10 -17 21 8 l11 22 10 -25 11 -25 0 28 c1 27 14 36 26 17
11 -17 23 -11 18 9 -3 10 0 22 6 25 17 11 13 26 -6 26 -14 1 -12 6 11 26 27
24 36 26 103 22 62 -3 75 -7 89 -26z m-3812 3 c3 -8 1 -15 -4 -15 -6 0 -10 7
-10 15 0 8 2 15 4 15 2 0 6 -7 10 -15z m2293 -32 c-3 -10 -5 -4 -5 12 0 17 2
24 5 18 2 -7 2 -21 0 -30z m2243 -74 c7 -11 9 -28 5 -36 -5 -14 -9 -13 -26 6
-20 21 -20 51 0 51 6 0 15 -9 21 -21z m-2170 -39 c12 -8 11 -10 -7 -10 -13 0
-23 5 -23 10 0 13 11 13 30 0z m-3373 -42 c-3 -7 -5 -2 -5 12 0 14 2 19 5 13
2 -7 2 -19 0 -25z m3353 -82 c-7 -7 -10 8 -9 50 l1 59 10 -49 c6 -33 6 -52 -2
-60z m-2647 32 c-7 -53 -23 -74 -23 -30 0 18 -4 32 -10 32 -5 0 -10 5 -10 10
0 6 7 10 15 10 8 0 15 5 15 10 0 6 4 10 9 10 5 0 7 -19 4 -42z m4751 -17 c16
-18 16 -18 -9 -14 -14 3 -25 12 -25 19 0 19 14 17 34 -5z m-18 -88 c-7 -17 -8
-17 -17 0 -12 21 -2 44 13 29 6 -6 8 -19 4 -29z m-36 1 c0 -2 -7 -4 -15 -4 -8
0 -15 4 -15 10 0 5 7 7 15 4 8 -4 15 -8 15 -10z m-1687 -18 c6 -14 -29 -54
-38 -44 -8 8 13 58 24 58 5 0 11 -6 14 -14z m205 -5 l23 -1 -23 -31 c-29 -39
-67 -59 -112 -59 -38 0 -49 -9 -37 -29 6 -9 20 -11 50 -6 60 10 127 -16 179
-69 28 -29 38 -46 30 -49 -7 -3 -3 -6 9 -6 12 -1 25 4 28 9 3 6 15 10 25 10
10 0 20 6 22 12 4 10 10 10 29 0 51 -26 82 -48 89 -62 4 -8 17 -35 29 -60 14
-29 23 -67 24 -105 2 -59 2 -60 -33 -76 -43 -21 -74 -15 -118 23 -18 15 -40
28 -50 28 -23 1 -50 22 -45 37 2 6 -4 24 -14 40 -14 22 -14 25 -2 16 9 -7 19
-10 22 -7 4 4 11 -5 16 -20 13 -32 21 -33 21 -2 0 16 -12 32 -38 50 -21 14
-41 26 -45 26 -3 0 -15 -21 -26 -46 -11 -25 -32 -59 -45 -75 -14 -16 -27 -38
-31 -48 -3 -11 -27 -30 -53 -44 -41 -21 -62 -24 -120 -18 -10 1 -13 17 -10 63
l3 62 -77 -3 c-66 -2 -82 0 -108 19 -17 12 -28 26 -24 31 3 5 9 7 13 4 5 -2
16 4 26 15 17 18 16 19 -9 26 -26 6 -26 7 -10 25 9 11 23 19 29 19 7 0 18 7
25 15 7 8 23 15 36 15 17 0 22 -4 18 -15 -4 -8 -13 -15 -21 -15 -9 0 -11 -5
-6 -12 4 -7 7 -22 5 -33 -2 -19 -1 -19 7 1 5 12 16 24 25 27 9 4 16 14 16 24
0 10 5 25 10 33 8 13 11 12 24 -5 9 -11 16 -28 16 -37 0 -10 3 -18 8 -18 4 0
6 18 4 40 -3 25 0 40 7 40 6 0 11 9 11 20 0 19 -1 20 -24 5 -22 -14 -25 -14
-40 1 -24 24 -16 48 19 54 24 4 29 10 27 28 -2 12 2 22 7 22 6 0 11 7 11 15 0
8 19 35 43 59 37 39 46 44 77 41 19 -2 45 -4 58 -4z m1106 -13 c9 -34 7 -48
-5 -48 -5 0 -7 5 -3 11 4 8 0 8 -15 0 -17 -10 -26 -8 -46 6 -31 23 -31 27 3
40 43 17 59 15 66 -9z m-539 -48 c5 0 4 5 -3 12 -7 7 -12 18 -12 26 0 20 137
13 145 -7 16 -41 -90 -183 -165 -221 -21 -11 -41 -24 -45 -30 -9 -14 -25 -13
-25 3 0 6 -37 49 -81 95 -63 65 -76 83 -57 80 14 -2 22 -9 20 -18 -2 -8 24 12
57 45 l61 59 1 -34 c1 -19 4 -46 8 -60 7 -21 9 -18 15 25 12 80 13 82 44 52
16 -15 32 -27 37 -27z m906 -63 c31 -15 63 -27 72 -27 9 0 28 -6 43 -12 22
-10 28 -10 32 0 2 7 13 17 24 23 20 11 21 10 15 -36 -5 -33 -15 -55 -38 -78
-18 -17 -27 -33 -20 -35 19 -6 12 -28 -14 -42 -25 -13 -35 -40 -15 -40 6 0 10
-7 10 -15 0 -8 4 -15 9 -15 5 0 17 -7 25 -16 15 -15 14 -51 -3 -79 -8 -14 -12
-33 -17 -80 -15 -153 -21 -173 -45 -180 -12 -4 -36 -17 -54 -30 -20 -13 -57
-25 -90 -29 -56 -6 -115 -29 -115 -44 0 -4 -15 -16 -32 -27 -28 -16 -31 -16
-19 -2 17 22 8 44 -24 59 -25 11 -35 38 -14 38 18 0 119 111 140 153 22 47 20
53 -13 36 -12 -7 -35 -12 -50 -10 -26 2 -101 -30 -113 -49 -10 -16 -25 -12
-25 7 0 26 -17 3 -23 -33 -3 -18 -1 -36 6 -43 8 -8 8 -14 -1 -23 -9 -9 -12 -8
-12 7 0 10 -3 15 -7 12 -3 -4 -2 -17 4 -30 26 -52 24 -55 -17 -50 -49 7 -70
-12 -70 -61 0 -43 -11 -51 -33 -26 -21 25 -47 15 -47 -18 0 -24 -1 -25 -20 -7
-18 16 -22 17 -54 1 -19 -9 -40 -16 -48 -16 -7 0 -22 -7 -32 -15 -11 -8 -32
-15 -46 -15 -15 0 -48 -6 -74 -14 -43 -13 -52 -13 -82 2 -19 9 -37 26 -40 38
-6 24 -34 40 -43 25 -14 -21 -108 -9 -118 15 -3 8 -13 14 -22 14 -39 0 -87 62
-57 73 7 3 12 -4 12 -16 -1 -18 5 -21 44 -22 33 -1 44 -5 42 -15 -2 -10 3 -9
17 4 12 11 34 19 51 18 35 -1 46 11 25 28 -15 13 -20 42 -9 53 7 7 28 -12 37
-33 3 -8 6 0 6 18 1 21 5 31 12 27 6 -4 9 4 7 22 -3 24 0 28 20 25 17 -3 22 2
22 19 0 16 5 20 19 16 10 -2 26 0 35 5 13 7 23 5 37 -8 15 -13 19 -14 19 -3 0
9 6 7 18 -7 19 -23 92 -70 92 -59 0 4 -14 27 -31 52 -30 45 -30 46 -10 64 11
11 29 19 40 19 14 0 18 5 14 20 -3 11 -9 20 -14 20 -5 0 -9 7 -9 15 0 8 -4 15
-10 15 -5 0 -10 -4 -10 -9 0 -4 -12 -6 -26 -3 -28 5 -28 2 -3 92 7 25 16 47
20 50 4 3 9 32 10 65 3 96 8 103 68 95 28 -4 57 -12 63 -18 18 -18 28 -15 28
8 0 11 5 20 10 20 6 0 10 8 10 18 -1 16 -1 16 -11 0 -11 -19 -39 -13 -39 8 0
8 9 14 20 14 13 0 18 5 14 15 -7 17 4 19 26 5 13 -9 13 -10 0 -10 -13 0 -13
-1 0 -10 8 -5 20 -10 25 -10 6 0 5 4 -2 8 -15 9 -5 25 24 41 25 13 28 10 37
-42 4 -21 22 -58 40 -82 l33 -43 6 46 c3 26 12 60 19 75 12 26 17 28 61 25 26
-2 47 1 47 6 0 4 7 6 14 3 10 -4 13 -1 10 7 -3 7 10 29 29 49 30 32 36 35 68
28 19 -4 59 -20 90 -34z m-2568 -17 c-3 -14 -10 -29 -16 -35 -6 -7 -8 -2 -3
15 3 14 6 36 6 50 0 20 2 22 10 10 5 -8 7 -26 3 -40z m2027 -40 c0 -5 -5 -10
-11 -10 -5 0 -7 5 -4 10 3 6 8 10 11 10 2 0 4 -4 4 -10z m-1805 -33 c16 -12
34 -27 38 -34 5 -7 27 -13 52 -13 40 0 43 -2 41 -25 -4 -29 -54 -100 -117
-164 -70 -71 -78 -75 -126 -72 -47 3 -62 -13 -45 -46 14 -27 25 -102 13 -83
-6 8 -11 23 -11 33 0 9 -10 38 -21 63 -18 38 -20 54 -14 102 4 31 8 71 9 88 1
21 13 45 39 73 21 24 43 55 48 69 12 35 52 38 94 9z m2475 -159 c0 -18 -2 -20
-9 -8 -6 8 -7 18 -5 22 9 14 14 9 14 -14z m-893 -65 c-3 -10 -5 -4 -5 12 0 17
2 24 5 18 2 -7 2 -21 0 -30z m-5847 -34 c0 -5 -6 -9 -14 -9 -9 0 -12 -8 -8
-26 6 -34 -16 -49 -40 -27 -24 21 -23 43 2 43 11 0 19 3 19 8 -1 4 2 22 6 40
l8 33 13 -27 c8 -14 14 -30 14 -35z m4370 49 c0 -7 -9 -24 -19 -38 l-19 -24
11 37 c11 36 27 50 27 25z m47 -10 c-3 -8 -6 -5 -6 6 -1 11 2 17 5 13 3 -3 4
-12 1 -19z m153 -43 c-10 -12 -9 -15 8 -15 15 0 22 -9 27 -30 4 -16 4 -34 0
-40 -3 -5 3 -10 14 -10 18 0 21 -7 23 -52 2 -78 -2 -110 -18 -140 -8 -16 -16
-28 -19 -28 -2 0 -28 14 -57 30 -29 17 -60 34 -67 38 -24 14 -52 56 -60 93
-11 46 0 120 19 129 8 5 42 22 75 38 48 25 61 28 63 16 2 -8 -2 -21 -8 -29z
m-5360 -27 c0 -25 -12 -58 -21 -58 -5 0 -9 7 -9 15 0 8 5 15 11 15 6 0 8 9 4
20 -4 11 -2 20 4 20 6 0 11 -6 11 -12z m6426 -43 c-1 -37 -4 -45 -19 -45 -10
0 -17 3 -15 8 2 4 10 24 18 45 8 20 15 37 15 37 1 0 1 -20 1 -45z m69 -52 c-5
-16 -41 -17 -50 -2 -4 5 0 18 9 28 9 10 16 31 17 47 1 26 3 24 15 -16 8 -25
12 -51 9 -57z m155 82 c0 -8 -4 -15 -10 -15 -5 0 -10 7 -10 15 0 8 5 15 10 15
6 0 10 -7 10 -15z m-1511 -50 l0 -20 -9 20 c-5 11 -9 29 -9 40 l0 20 9 -20 c5
-11 9 -29 9 -40z m-4744 26 c3 -5 1 -12 -5 -16 -5 -3 -10 1 -10 9 0 18 6 21
15 7z m5065 -11 c0 -5 -7 -10 -15 -10 -8 0 -15 5 -15 10 0 6 7 10 15 10 8 0
15 -4 15 -10z m-4690 -32 c1 -7 3 -30 6 -52 5 -29 3 -37 -8 -34 -14 5 -20 98
-6 98 4 0 8 -6 8 -12z m4281 -39 c-10 -23 -10 -23 -10 7 -1 17 2 34 7 38 11
12 14 -18 3 -45z m-28 21 c3 -11 1 -20 -4 -20 -5 0 -9 9 -9 20 0 11 2 20 4 20
2 0 6 -9 9 -20z m-5309 -11 c20 -16 25 -26 20 -45 -3 -13 -2 -30 3 -37 6 -6
16 -34 22 -62 7 -27 22 -69 33 -92 20 -39 20 -44 5 -75 -9 -19 -12 -37 -7 -42
11 -11 1 -38 -11 -30 -5 3 -9 14 -9 25 0 10 -4 19 -10 19 -5 0 -10 -4 -10 -10
0 -5 -9 -10 -20 -10 -21 0 -29 33 -10 45 14 8 13 31 -2 47 -7 7 -15 27 -17 43
-1 17 -9 41 -16 55 -7 14 -11 37 -8 51 3 15 -2 39 -10 55 -8 16 -12 36 -10 44
3 8 6 21 8 28 6 17 18 15 49 -9z m5848 -41 c-7 -7 -12 -8 -12 -2 0 14 12 26
19 19 2 -3 -1 -11 -7 -17z m778 -11 c0 -7 9 -29 19 -50 10 -20 16 -37 12 -37
-14 0 -62 72 -57 86 7 17 26 19 26 1z m833 -29 c-17 -29 -24 -33 -63 -34 -31
-1 -35 0 -12 3 21 3 40 14 54 34 29 39 45 37 21 -3z m-1460 -20 c19 -43 37
-110 37 -137 0 -18 -6 -21 -38 -21 -63 0 -87 49 -59 120 4 8 11 27 16 43 14
36 27 34 44 -5z m470 -25 c-2 -26 -10 -54 -18 -63 -8 -9 -15 -22 -15 -29 0 -7
-18 -32 -41 -56 l-40 -43 -22 22 c-14 13 -21 30 -19 43 3 13 -2 33 -11 46 -8
12 -14 35 -14 51 0 27 0 28 45 21 39 -6 44 -5 38 10 -5 15 -1 16 33 10 36 -6
39 -4 45 20 10 41 24 20 19 -32z m-570 7 c-7 -28 -17 -32 -39 -15 -18 14 -18
15 4 21 12 3 22 11 22 16 0 5 4 7 9 4 5 -3 7 -15 4 -26z m177 9 c0 -6 -9 -22
-20 -36 -20 -26 -25 -17 -14 25 6 22 34 32 34 11z m651 -9 c5 0 9 -5 9 -11 0
-15 -43 -7 -48 10 -3 10 0 12 12 8 10 -4 22 -7 27 -7z m-1220 -80 c15 0 49
-39 49 -56 0 -8 4 -13 9 -10 5 4 11 0 14 -6 3 -10 9 -11 26 0 22 13 43 17 26
4 -6 -4 -21 -24 -35 -44 -14 -21 -29 -38 -35 -38 -12 0 -85 66 -86 77 0 4 -2
27 -5 51 -3 23 -3 50 1 60 6 14 9 12 17 -10 5 -16 14 -28 19 -28z m-4904 -17
c-3 -10 -5 -4 -5 12 0 17 2 24 5 18 2 -7 2 -21 0 -30z m5611 5 c10 -10 15 -10
21 1 7 10 12 8 25 -10 16 -23 16 -24 -9 -27 -29 -4 -79 24 -70 38 8 13 19 12
33 -2z m347 2 c3 -5 1 -10 -4 -10 -6 0 -11 5 -11 10 0 6 2 10 4 10 3 0 8 -4
11 -10z m81 -18 c-15 -2 -35 0 -44 4 -13 6 -10 9 13 14 17 3 36 2 44 -4 11 -9
9 -12 -13 -14z m-6396 -23 c0 -10 -4 -19 -10 -19 -5 0 -10 12 -10 26 0 14 4
23 10 19 6 -3 10 -15 10 -26z m360 -59 c-6 -11 -12 -20 -14 -20 -2 0 -2 9 1
20 3 11 9 20 15 20 5 0 4 -9 -2 -20z m-66 -15 c3 -8 1 -15 -3 -15 -5 0 -11 7
-15 15 -3 8 -1 15 3 15 5 0 11 -7 15 -15z m-192 -54 c1 -17 5 -31 9 -31 4 0
14 -16 24 -36 15 -32 15 -38 2 -51 -13 -13 -16 -10 -22 27 -4 25 -10 38 -15
31 -9 -15 -20 35 -20 88 1 27 3 32 10 20 5 -9 11 -30 12 -48z m5541 25 c8 -21
-3 -27 -19 -11 -18 17 -18 25 0 25 8 0 16 -6 19 -14z m1727 -5 c0 -8 -103 -41
-125 -41 -8 0 -15 -6 -15 -13 0 -14 98 -77 121 -77 8 0 22 -9 32 -20 19 -22
22 -35 7 -25 -5 3 -10 2 -10 -4 0 -5 5 -13 10 -16 18 -11 11 -47 -10 -52 -24
-6 -26 -26 -5 -47 21 -21 19 -88 -4 -133 -11 -21 -23 -55 -26 -75 -4 -21 -12
-38 -17 -38 -6 0 -8 -10 -5 -22 9 -38 -23 -89 -73 -115 -25 -12 -56 -23 -69
-23 -13 0 -50 -18 -83 -40 -33 -22 -66 -40 -73 -40 -23 0 -38 59 -38 153 -1
91 4 110 44 175 13 22 12 25 -11 45 -51 44 -54 52 -27 91 13 20 27 33 30 30 3
-4 -1 -17 -10 -30 -9 -14 -13 -27 -10 -31 4 -3 9 2 13 11 3 9 11 16 17 16 6 0
20 8 31 19 31 27 77 55 75 45 -5 -26 2 -47 11 -38 6 6 13 50 15 99 7 123 40
178 119 194 40 8 86 9 86 2z m47 3 c-3 -3 -12 -4 -19 -1 -8 3 -5 6 6 6 11 1
17 -2 13 -5z m-7227 -26 c0 -14 -4 -14 -25 -5 -32 15 -32 25 0 23 16 0 25 -7
25 -18z m5293 -4 c24 -9 21 -20 -5 -28 -38 -10 -48 -7 -48 12 0 23 10 34 24
27 6 -3 19 -8 29 -11z m-5213 -35 c0 -11 -4 -17 -10 -14 -5 3 -10 13 -10 21 0
8 5 14 10 14 6 0 10 -9 10 -21z m40 -5 c0 -8 -4 -12 -10 -9 -5 3 -10 13 -10
21 0 8 5 12 10 9 6 -3 10 -13 10 -21z m-580 -47 c0 -23 -26 -50 -40 -42 -5 3
-10 15 -10 25 0 14 5 18 16 13 11 -4 15 0 14 13 -4 32 0 40 10 24 5 -8 10 -23
10 -33z m670 23 c-6 -11 -8 -31 -4 -45 3 -14 3 -25 -2 -25 -18 0 -44 35 -44
62 0 25 4 28 30 28 28 0 30 -2 20 -20z m6975 10 c4 -7 -3 -8 -22 -4 -38 9 -42
14 -10 14 14 0 29 -5 32 -10z m-6995 -126 c0 -8 -7 -14 -15 -14 -10 0 -15 10
-15 26 0 22 2 25 15 14 8 -7 15 -19 15 -26z m6077 17 c3 -10 21 -27 41 -37 21
-11 39 -22 40 -26 2 -5 10 -8 17 -8 7 0 15 -6 18 -13 3 -9 -5 -12 -30 -9 -27
3 -34 1 -31 -9 3 -8 17 -15 31 -17 33 -4 35 -19 5 -32 -17 -7 -9 -8 33 -6 44
2 56 -1 52 -11 -3 -7 -9 -13 -13 -13 -4 0 -17 -20 -29 -44 -11 -25 -30 -51
-42 -59 -17 -12 -19 -19 -10 -34 7 -12 10 -13 11 -4 0 7 10 24 23 37 12 13 29
31 38 41 36 39 77 72 83 66 3 -4 6 -27 7 -52 l1 -46 10 42 c9 43 9 43 34 27
13 -9 29 -24 33 -33 5 -9 12 -13 15 -10 4 3 -5 18 -19 33 -14 15 -25 32 -25
37 0 11 37 3 56 -13 7 -5 26 -10 43 -11 35 -2 41 -25 16 -67 -8 -14 -21 -39
-29 -55 -8 -17 -24 -39 -36 -50 -12 -11 -35 -47 -52 -80 -47 -97 -115 -155
-180 -155 -13 0 -29 -5 -34 -10 -14 -14 -110 5 -130 25 -9 8 -11 15 -4 15 11
0 50 82 50 106 0 12 -4 12 -24 -3 -13 -10 -21 -24 -19 -30 3 -7 -2 -16 -12
-19 -10 -4 -14 -13 -10 -22 5 -12 1 -12 -15 3 -11 10 -25 36 -32 57 -6 21 -14
38 -18 38 -4 0 -24 34 -45 76 -43 89 -48 155 -18 255 16 53 23 63 52 75 19 8
39 21 45 29 10 15 55 32 84 34 8 1 16 -8 19 -18z m89 -17 c58 -34 49 -43 -13
-13 -26 13 -51 23 -55 21 -5 -1 -8 3 -8 8 0 17 30 11 76 -16z m-6255 -37 c-8
-8 -11 -3 -11 19 1 25 2 27 11 11 8 -14 8 -22 0 -30z m5529 -18 c0 -11 -4 -17
-10 -14 -5 3 -12 -6 -16 -20 -6 -24 -24 -36 -24 -15 0 20 34 69 48 70 1 0 2
-9 2 -21z m-760 -35 c17 -43 11 -50 -15 -19 -29 35 -31 45 -10 45 9 0 20 -12
25 -26z m-5062 -7 c2 -10 -3 -17 -11 -17 -16 0 -30 24 -19 34 10 10 27 1 30
-17z m392 -2 c0 -8 -7 -15 -15 -15 -16 0 -20 12 -8 23 11 12 23 8 23 -8z
m4738 -39 c3 -12 -1 -17 -10 -14 -7 3 -15 13 -16 22 -3 12 1 17 10 14 7 -3 15
-13 16 -22z m6 -32 c23 -9 20 -24 -4 -24 -11 0 -20 7 -20 15 0 17 2 18 24 9z
m-4950 -220 c4 -10 1 -14 -6 -12 -15 5 -23 28 -10 28 5 0 13 -7 16 -16z m61
-53 c3 -5 1 -12 -5 -16 -5 -3 -10 1 -10 9 0 18 6 21 15 7z m-101 -118 c3 -16
8 -46 11 -68 l6 -40 -21 25 c-16 18 -20 20 -16 7 17 -51 17 -67 2 -89 -9 -12
-16 -33 -16 -46 0 -29 -28 -84 -40 -77 -4 3 -18 -11 -30 -30 -12 -19 -29 -36
-38 -36 -15 -1 -15 -2 1 -6 19 -5 51 -59 42 -72 -9 -15 -45 0 -62 25 -20 30
-33 22 -33 -21 l0 -33 -46 46 -47 46 6 116 c6 131 15 154 82 223 43 45 47 46
112 50 37 2 71 4 75 5 3 1 9 -10 12 -25z m-316 -254 l-3 -24 -13 23 c-7 12
-10 27 -6 33 10 17 26 -6 22 -32z m-78 -43 c0 -8 -4 -17 -9 -20 -10 -7 -23 19
-14 28 11 11 23 6 23 -8z m6497 -93 c-3 -10 -5 -4 -5 12 0 17 2 24 5 18 2 -7
2 -21 0 -30z m-55 -35 c-7 -7 -12 -8 -12 -2 0 14 12 26 19 19 2 -3 -1 -11 -7
-17z m323 -73 c348 -7 509 -16 588 -32 83 -17 96 -32 57 -66 -19 -16 -22 -16
-36 -2 -8 8 -13 19 -10 24 7 11 -22 23 -35 15 -6 -4 -6 -10 -1 -17 26 -32 -27
-69 -125 -86 -31 -6 -43 -4 -47 6 -6 14 -36 18 -36 4 0 -12 -115 -4 -156 11
-30 11 -36 10 -47 -7 -9 -12 -21 -16 -35 -12 -12 3 -24 2 -27 -3 -7 -11 -534
-10 -541 1 -9 15 16 147 30 158 13 11 138 20 196 14 19 -2 121 -5 225 -8z
m-428 -315 c6 -23 23 -27 23 -5 0 8 6 15 13 15 8 0 13 -10 12 -22 -1 -17 -8
-22 -31 -23 -34 0 -58 19 -50 40 8 21 27 18 33 -5z m318 10 c7 -12 -43 -21
-90 -16 -22 3 -59 5 -82 5 -24 1 -43 5 -43 11 0 12 208 12 215 0z m53 1 c11
-7 10 -10 -3 -15 -20 -7 -38 1 -30 15 7 11 16 11 33 0z m345 -11 c21 -4 41
-10 44 -14 6 -6 -37 -10 -64 -7 -7 1 -13 -3 -13 -9 0 -5 5 -10 10 -10 6 0 10
-4 10 -10 0 -5 -13 -10 -30 -10 -22 0 -28 4 -24 15 8 19 -5 23 -99 29 -97 5
-112 16 -26 17 35 1 78 5 94 9 17 4 37 5 45 3 8 -3 32 -9 53 -13z m-638 1 c3
-5 1 -12 -5 -16 -5 -3 -10 1 -10 9 0 18 6 21 15 7z m-6198 -18 c5 -15 -28 -26
-41 -13 -7 7 -5 10 8 10 10 0 14 5 10 11 -4 7 -1 10 6 7 8 -2 15 -9 17 -15z
m6570 11 c-3 -3 -12 -4 -19 -1 -8 3 -5 6 6 6 11 1 17 -2 13 -5z m-6530 -75
c13 -13 -2 -69 -18 -69 -5 0 -9 -19 -9 -41 0 -36 -2 -40 -15 -29 -17 15 -20
50 -4 50 8 0 8 4 0 14 -8 10 -7 22 4 50 16 38 24 43 42 25z m-211 -44 c4 -14
3 -29 0 -33 -9 -8 -26 18 -26 41 0 26 19 20 26 -8z m6149 13 c14 -6 24 -17 21
-24 -3 -7 4 -20 15 -30 20 -18 26 -54 8 -54 -15 0 -48 42 -49 61 0 28 -64 41
-87 18 -7 -7 -19 -9 -29 -5 -16 6 -16 8 1 26 21 23 79 27 120 8z m630 -48 c3
-5 -1 -10 -9 -10 -8 0 -18 5 -21 10 -3 6 1 10 9 10 8 0 18 -4 21 -10z m42 -6
c-3 -3 -12 -4 -19 -1 -8 3 -5 6 6 6 11 1 17 -2 13 -5z m58 -4 c-3 -5 -15 -10
-26 -10 -11 0 -17 5 -14 10 3 6 15 10 26 10 11 0 17 -4 14 -10z m-893 -32 c-7
-7 -12 -8 -12 -2 0 14 12 26 19 19 2 -3 -1 -11 -7 -17z m78 12 c0 -5 -4 -10
-10 -10 -5 0 -10 5 -10 10 0 6 5 10 10 10 6 0 10 -4 10 -10z m-6075 -30 c-3
-5 -10 -10 -16 -10 -5 0 -9 5 -9 10 0 6 7 10 16 10 8 0 12 -4 9 -10z m7075
-40 c0 -5 -4 -10 -10 -10 -5 0 -10 5 -10 10 0 6 5 10 10 10 6 0 10 -4 10 -10z
m-1133 -32 c-13 -31 -37 -50 -37 -28 0 15 30 60 41 60 5 0 3 -14 -4 -32z m267
-70 c-7 -85 -20 -122 -35 -96 -9 17 21 178 33 178 6 0 6 -35 2 -82z m-6047
-130 c-5 -16 -125 -14 -140 1 -8 8 12 11 67 11 58 0 77 -3 73 -12z m6017 -80
c-3 -46 -8 -85 -10 -87 -2 -2 -4 35 -4 82 0 55 4 87 11 87 7 0 8 -26 3 -82z
m-6070 -32 c30 -4 45 -34 25 -49 -9 -7 -18 -21 -20 -31 -5 -22 -40 -28 -78
-14 -16 5 -28 5 -35 -2 -18 -18 -31 -10 -48 31 -10 22 -21 38 -26 35 -10 -6
-24 29 -15 38 5 4 157 -1 197 -8z m6053 -153 c-6 -94 -68 -426 -75 -405 -2 7
3 47 12 90 25 125 56 330 56 367 0 19 3 35 6 35 4 0 4 -39 1 -87z m897 -359
c21 -20 21 -48 1 -40 -9 3 -19 -3 -25 -14 -7 -14 -7 -20 0 -20 5 0 10 -20 10
-45 0 -43 -1 -45 -24 -39 -18 4 -25 1 -29 -13 -4 -14 -5 -13 -6 5 0 12 6 34
15 47 9 14 14 36 11 51 -5 26 12 84 24 84 4 0 15 -7 23 -16z m17 -147 c-17
-17 -24 -1 -10 25 12 21 14 21 17 4 2 -10 -1 -23 -7 -29z m-33 -51 c6 -31 -16
-43 -27 -15 -5 13 -7 28 -4 32 8 13 28 2 31 -17z m-7103 -76 c-4 -6 4 -20 17
-31 l23 -20 -27 17 c-28 16 -38 44 -17 44 5 0 7 -5 4 -10z"/>
<path d="M5802 7010 c0 -14 2 -19 5 -12 2 6 2 18 0 25 -3 6 -5 1 -5 -13z"/>
<path d="M6130 6770 c0 -16 4 -30 8 -30 5 0 9 14 9 30 0 17 -4 30 -9 30 -4 0
-8 -13 -8 -30z"/>
<path d="M6050 6618 c0 -32 3 -39 10 -28 13 20 13 70 0 70 -5 0 -10 -19 -10
-42z"/>
<path d="M5986 6226 c-10 -19 -16 -42 -12 -51 7 -19 26 -11 26 11 0 8 5 14 10
14 6 0 10 -7 10 -17 0 -9 3 -14 6 -10 8 7 -6 87 -15 87 -3 0 -15 -16 -25 -34z"/>
<path d="M5795 6078 c-8 -28 -6 -100 4 -148 l7 -35 7 36 c4 21 3 49 -3 65 -6
15 -8 45 -5 66 7 42 1 51 -10 16z"/>
<path d="M6102 6065 c-2 -19 2 -35 8 -35 5 0 10 16 10 35 0 19 -4 35 -8 35 -4
0 -9 -16 -10 -35z"/>
<path d="M5955 6048 c-4 -16 -3 -49 2 -75 l10 -48 7 47 c5 27 4 59 -2 75 l-10
28 -7 -27z"/>
<path d="M5908 6045 c-8 -9 1 -66 13 -79 10 -11 10 13 0 57 -3 16 -9 26 -13
22z"/>
<path d="M5732 5985 c0 -16 2 -22 5 -12 2 9 2 23 0 30 -3 6 -5 -1 -5 -18z"/>
<path d="M5881 5985 c-1 -21 15 -52 23 -45 2 3 -2 19 -9 35 -10 23 -14 25 -14
10z"/>
<path d="M5860 5913 c0 -4 5 -15 10 -23 8 -13 10 -13 10 2 0 9 -4 20 -10 23
-5 3 -10 3 -10 -2z"/>
<path d="M5905 6750 c-3 -5 -1 -10 4 -10 6 0 11 5 11 10 0 6 -2 10 -4 10 -3 0
-8 -4 -11 -10z"/>
<path d="M6461 5884 c0 -11 3 -14 6 -6 3 7 2 16 -1 19 -3 4 -6 -2 -5 -13z"/>
<path d="M6425 3760 c-3 -5 -1 -10 4 -10 6 0 11 5 11 10 0 6 -2 10 -4 10 -3 0
-8 -4 -11 -10z"/>
<path d="M6470 3749 c0 -5 5 -7 10 -4 6 3 10 8 10 11 0 2 -4 4 -10 4 -5 0 -10
-5 -10 -11z"/>
<path d="M7635 3870 c3 -4 14 -10 25 -13 11 -3 18 -2 15 3 -3 4 -14 10 -25 13
-11 3 -18 2 -15 -3z"/>
<path d="M7930 3870 c0 -5 5 -10 11 -10 5 0 7 5 4 10 -3 6 -8 10 -11 10 -2 0
-4 -4 -4 -10z"/>
<path d="M7825 3760 c-3 -5 -1 -10 4 -10 6 0 11 5 11 10 0 6 -2 10 -4 10 -3 0
-8 -4 -11 -10z"/>
<path d="M7726 3744 c-3 -9 -6 -17 -6 -18 0 -2 14 -3 30 -3 22 0 30 5 30 19 0
23 -45 25 -54 2z"/>
<path d="M7602 3713 c-16 -3 -21 -9 -17 -22 3 -11 -3 -25 -17 -37 -19 -17 -21
-17 -15 -2 3 10 2 20 -3 23 -6 4 -10 -2 -10 -12 0 -10 -8 -27 -16 -38 -16 -20
-16 -19 -9 4 7 22 5 23 -24 16 -21 -4 -37 -2 -48 7 -15 11 -16 10 -11 -9 4
-16 2 -23 -8 -23 -8 0 -14 9 -14 21 0 11 -4 18 -9 15 -5 -4 -21 -2 -34 3 -32
12 -52 -8 -42 -41 l6 -23 -18 21 c-22 26 -73 38 -73 18 0 -8 7 -14 16 -14 9 0
21 -13 27 -30 8 -21 16 -28 28 -25 24 8 42 -20 36 -55 -4 -16 -2 -32 3 -35 15
-9 23 44 11 72 -16 36 -7 39 14 6 10 -15 24 -32 32 -36 18 -11 17 -27 -2 -27
-8 0 -15 -6 -15 -14 0 -8 -3 -21 -6 -30 -10 -27 31 -19 46 9 7 14 17 25 21 25
14 0 69 64 75 88 4 12 10 22 15 22 13 0 92 52 105 70 9 11 15 12 26 2 8 -6 17
-10 20 -7 2 3 3 -9 0 -25 -3 -19 0 -30 8 -30 15 0 49 40 50 59 0 11 3 11 15 1
12 -10 15 -9 15 6 1 17 2 17 19 -3 l19 -23 16 25 c22 34 20 38 -15 30 -50 -11
-96 -8 -130 9 -32 16 -44 17 -87 9z"/>
<path d="M7146 3651 c-10 -11 -27 -21 -38 -23 -16 -2 -20 -12 -23 -55 -4 -58
9 -72 20 -22 8 35 37 69 60 69 8 0 15 5 15 10 0 6 10 10 23 10 22 1 22 1 -3
15 -32 19 -34 18 -54 -4z"/>
<path d="M7183 3374 c-6 -16 23 -54 42 -54 6 0 17 -15 23 -34 16 -43 53 -58
98 -40 l31 13 -8 57 c-9 64 -28 87 -44 51 -15 -35 -26 -37 -64 -13 -54 33 -71
38 -78 20z"/>
<path d="M6840 3260 c0 -5 5 -10 10 -10 6 0 10 5 10 10 0 6 -4 10 -10 10 -5 0
-10 -4 -10 -10z"/>
<path d="M72 3360 c0 -14 2 -19 5 -12 2 6 2 18 0 25 -3 6 -5 1 -5 -13z"/>
<path d="M6054 3303 c-6 -10 -8 -27 -4 -38 7 -18 8 -18 15 7 9 35 3 53 -11 31z"/>
<path d="M6790 2460 c0 -5 5 -10 10 -10 6 0 10 5 10 10 0 6 -4 10 -10 10 -5 0
-10 -4 -10 -10z"/>
<path d="M80 861 c0 -16 34 -31 49 -22 9 6 10 11 2 15 -6 4 -11 5 -11 1 0 -3
-9 -1 -20 5 -13 7 -20 7 -20 1z"/>
<path d="M5023 7993 c9 -2 25 -2 35 0 9 3 1 5 -18 5 -19 0 -27 -2 -17 -5z"/>
<path d="M1756 7983 c-3 -4 -6 -30 -6 -60 0 -45 3 -53 19 -53 10 0 39 -3 65
-6 l46 -7 0 62 0 61 -32 1 c-18 1 -45 3 -60 4 -14 2 -29 1 -32 -2z"/>
<path d="M1915 7937 c-11 -72 -3 -84 56 -86 28 0 55 -3 60 -6 5 -4 9 21 9 59
0 66 0 66 -29 66 -16 0 -42 3 -59 6 -30 6 -31 5 -37 -39z"/>
<path d="M1250 7950 c-10 -6 -11 -10 -2 -10 6 0 12 -5 12 -11 0 -5 -4 -7 -10
-4 -5 3 -10 1 -10 -4 0 -16 20 -13 26 4 9 23 1 36 -16 25z"/>
<path d="M2090 7902 l0 -59 46 -7 c78 -10 75 -13 72 57 l-3 62 -57 3 -58 3 0
-59z"/>
<path d="M2247 7954 c-4 -4 -7 -37 -7 -74 l0 -67 38 -7 c83 -13 82 -15 82 69
0 72 -1 75 -24 75 -13 0 -36 3 -52 6 -16 3 -32 2 -37 -2z"/>
<path d="M1317 7920 c-3 -11 -1 -20 4 -20 5 0 9 9 9 20 0 11 -2 20 -4 20 -2 0
-6 -9 -9 -20z"/>
<path d="M2392 7863 l3 -68 39 -6 c69 -11 76 -5 76 66 l0 62 -46 7 c-79 10
-75 13 -72 -61z"/>
<path d="M2535 7887 c-4 -8 -5 -36 -3 -62 3 -45 5 -48 43 -61 64 -22 65 -21
65 50 0 36 -4 67 -8 70 -5 3 -28 8 -50 12 -32 5 -43 3 -47 -9z"/>
<path d="M2667 7884 c-12 -12 -8 -119 6 -136 6 -9 29 -18 50 -21 l37 -6 0 80
0 79 -29 0 c-16 0 -36 2 -43 5 -8 3 -17 2 -21 -1z"/>
<path d="M4977 7838 c8 -59 13 -61 13 -5 0 26 -4 47 -9 47 -5 0 -7 -19 -4 -42z"/>
<path d="M1392 7822 c-9 -6 -12 -28 -10 -68 l3 -59 68 -3 68 -3 -3 68 -3 68
-55 3 c-30 1 -61 -2 -68 -6z"/>
<path d="M2890 7767 c0 -59 2 -64 29 -80 16 -9 32 -17 35 -17 3 0 6 32 6 70 0
66 -1 71 -26 80 -41 16 -44 13 -44 -53z"/>
<path d="M4950 7772 c0 -29 5 -52 10 -52 6 0 8 19 6 46 -7 64 -16 68 -16 6z"/>
<path d="M1747 7803 c-10 -9 -9 -121 1 -126 4 -2 35 -7 70 -11 l62 -7 0 69 c0
64 -2 70 -22 76 -31 8 -103 8 -111 -1z"/>
<path d="M1910 7749 c0 -35 4 -69 8 -74 4 -6 35 -15 70 -21 l62 -10 0 78 0 78
-54 0 c-30 0 -61 3 -70 6 -14 5 -16 -4 -16 -57z"/>
<path d="M2085 7770 c-9 -15 -8 -281 2 -290 4 -4 32 -10 61 -12 l52 -5 0 63
c0 35 -3 64 -7 65 -5 1 -23 2 -42 4 -33 3 -55 21 -45 37 3 4 25 8 49 8 30 0
45 5 49 16 8 22 7 87 -2 100 -10 17 -108 28 -117 14z"/>
<path d="M2240 7702 l0 -69 31 -7 c17 -3 44 -6 60 -6 29 0 29 0 29 65 0 72 2
70 -72 80 l-48 6 0 -69z"/>
<path d="M2537 7723 c-9 -14 -7 -312 1 -317 4 -2 27 -6 52 -7 l45 -4 3 68 c3
64 2 68 -23 77 -34 13 -34 43 0 34 l25 -6 0 76 0 76 -27 0 c-16 0 -38 3 -49 6
-12 3 -24 2 -27 -3z"/>
<path d="M2660 7635 c0 -81 -2 -79 70 -87 24 -3 25 -1 28 70 3 70 2 72 -23 82
-15 6 -37 10 -51 10 -23 0 -24 -2 -24 -75z"/>
<path d="M170 7641 c-34 -6 -35 -8 -38 -55 -2 -27 1 -53 7 -59 5 -5 32 -7 64
-3 l55 7 4 50 c1 27 2 54 0 59 -4 11 -36 11 -92 1z"/>
<path d="M834 7636 c-3 -8 -4 -33 -2 -57 l3 -44 65 0 65 0 3 52 3 51 -38 5
c-68 9 -94 7 -99 -7z"/>
<path d="M1208 7643 c-14 -4 -18 -15 -18 -58 0 -53 1 -54 33 -60 18 -4 51 -5
72 -3 l40 3 3 54 c2 37 -1 57 -10 62 -13 9 -90 10 -120 2z"/>
<path d="M4940 7606 c0 -19 -4 -38 -10 -41 -5 -3 -10 -15 -10 -26 0 -17 3 -18
20 -9 11 6 18 15 15 20 -3 5 1 25 9 44 15 35 12 46 -11 46 -8 0 -13 -12 -13
-34z"/>
<path d="M1747 7623 c-10 -17 -17 -109 -9 -120 4 -7 38 -15 75 -18 l67 -6 0
69 0 70 -31 6 c-43 8 -97 8 -102 -1z"/>
<path d="M1446 7604 c-9 -25 -7 -41 4 -24 6 10 10 11 10 3 0 -7 5 -13 10 -13
15 0 12 26 -4 39 -11 9 -15 8 -20 -5z"/>
<path d="M1960 7611 l-45 -6 -3 -56 c-3 -64 3 -69 86 -69 l42 0 0 64 c0 49 -4
65 -16 70 -9 3 -16 5 -17 4 -1 0 -22 -4 -47 -7z"/>
<path d="M1400 7579 c0 -11 5 -17 10 -14 6 3 10 13 10 21 0 8 -4 14 -10 14 -5
0 -10 -9 -10 -21z"/>
<path d="M2240 7527 l0 -64 38 -7 c81 -13 82 -13 82 54 0 66 1 65 -72 75 l-48
6 0 -64z"/>
<path d="M2664 7526 c-3 -7 -4 -42 -2 -77 l3 -64 40 -8 c71 -14 118 -32 123
-44 2 -9 -7 -13 -27 -13 l-31 0 0 -69 c0 -68 0 -69 31 -80 60 -21 58 -25 58
154 0 90 -3 166 -7 168 -4 3 -24 7 -44 11 -35 6 -38 5 -39 -16 -1 -23 -1 -23
-8 2 -8 29 -88 59 -97 36z"/>
<path d="M350 7471 l-45 -6 0 -60 0 -60 65 0 65 0 0 65 c0 73 0 73 -85 61z"/>
<path d="M170 7463 c-19 -3 -37 -8 -40 -13 -3 -4 -5 -32 -5 -62 l0 -53 61 -3
c78 -4 89 7 77 80 -9 58 -14 61 -93 51z"/>
<path d="M1204 7447 c-3 -8 -4 -32 -2 -53 3 -38 4 -38 48 -41 25 -2 50 -5 56
-7 15 -6 22 31 16 74 -4 31 -6 31 -46 27 -22 -3 -47 -1 -53 5 -9 7 -14 6 -19
-5z"/>
<path d="M1400 7431 c-26 -50 2 -90 66 -94 38 -2 39 -1 42 36 4 45 -12 63 -61
71 -29 5 -38 2 -47 -13z"/>
<path d="M1567 7443 c-11 -11 -8 -115 3 -108 6 3 10 1 10 -4 0 -7 24 -11 60
-11 l60 0 0 65 0 65 -63 0 c-35 0 -67 -3 -70 -7z"/>
<path d="M1745 7398 c-10 -62 -3 -72 51 -78 76 -8 84 -4 84 40 0 65 -5 70 -71
70 -58 0 -58 0 -64 -32z"/>
<path d="M2077 7424 c-12 -13 -8 -121 6 -132 6 -5 36 -13 65 -17 l52 -7 0 70
0 69 -32 7 c-18 3 -44 8 -58 12 -14 3 -29 2 -33 -2z m57 -49 c6 -18 -2 -45
-15 -45 -5 0 -9 14 -9 30 0 32 14 40 24 15z"/>
<path d="M2232 7336 c2 -36 6 -67 8 -70 3 -2 31 -7 63 -11 l58 -7 -3 73 -3 74
-64 3 -63 3 4 -65z"/>
<path d="M2660 7276 c0 -56 3 -67 22 -80 12 -9 35 -16 50 -16 28 0 28 0 28 70
0 76 1 74 -62 85 l-38 6 0 -65z"/>
<path d="M2877 7246 c-3 -30 -3 -63 0 -74 5 -23 66 -54 88 -46 8 4 22 1 30 -6
8 -6 22 -10 32 -8 14 2 18 14 20 58 1 30 0 63 -3 72 -7 22 -63 35 -75 17 -6
-10 -9 -8 -9 7 0 23 -17 34 -54 34 -21 0 -24 -6 -29 -54z"/>
<path d="M313 7283 c-9 -3 -13 -26 -13 -64 l0 -59 70 0 70 0 0 65 0 65 -57 -1
c-32 0 -64 -3 -70 -6z"/>
<path d="M1023 7283 c-9 -3 -13 -26 -13 -64 l0 -59 75 0 75 0 0 60 0 60 -49 0
c-27 0 -55 2 -63 4 -7 3 -19 2 -25 -1z"/>
<path d="M1195 7282 c-3 -3 -5 -32 -5 -64 l0 -58 48 0 c63 0 80 15 88 73 6 41
4 47 -12 48 -81 5 -114 6 -119 1z"/>
<path d="M158 7273 c-27 -4 -28 -7 -28 -58 0 -30 3 -56 8 -58 4 -2 35 -2 70 1
l63 4 -3 57 -3 56 -40 1 c-22 1 -52 -1 -67 -3z"/>
<path d="M1910 7191 c0 -28 5 -53 10 -56 6 -4 35 -9 65 -12 l55 -6 0 62 0 61
-65 0 -65 0 0 -49z"/>
<path d="M2093 7233 c-15 -5 -18 -118 -5 -127 5 -3 32 -8 60 -12 l52 -7 0 72
0 71 -34 0 c-19 0 -40 2 -48 4 -7 3 -19 2 -25 -1z"/>
<path d="M2545 7156 c-11 -16 -15 -41 -13 -73 l3 -48 45 -6 c25 -4 47 -5 50
-2 2 2 6 33 8 68 4 62 3 65 -22 75 -41 15 -54 12 -71 -14z"/>
<path d="M137 7093 c-4 -3 -7 -30 -7 -60 l0 -54 65 3 c66 2 77 9 70 44 -2 11
-4 31 -4 47 -1 26 -3 27 -59 27 -32 0 -62 -3 -65 -7z"/>
<path d="M355 7090 c3 -5 13 -10 21 -10 8 0 14 5 14 10 0 6 -9 10 -21 10 -11
0 -17 -4 -14 -10z"/>
<path d="M695 7088 c-16 -6 -36 -12 -42 -14 -8 -2 -13 -21 -13 -49 0 -49 -3
-46 75 -48 70 -1 84 17 71 88 -6 30 -11 35 -34 34 -15 -1 -40 -6 -57 -11z"/>
<path d="M1018 7089 c-12 -7 -18 -22 -18 -47 0 -56 10 -64 76 -66 l57 -1 13
50 c9 35 10 53 2 62 -13 15 -105 17 -130 2z"/>
<path d="M304 7066 c-3 -8 -4 -31 -2 -52 3 -35 5 -39 28 -36 14 2 27 8 28 13
2 5 10 9 18 9 8 0 14 4 14 9 0 14 -18 23 -24 12 -4 -5 -16 -4 -31 2 -20 9 -24
17 -20 35 6 24 -2 31 -11 8z"/>
<path d="M1377 7073 c-4 -3 -7 -30 -7 -59 0 -58 6 -64 71 -64 29 0 39 4 39 16
0 13 3 14 14 5 19 -16 23 -5 18 57 l-4 52 -62 0 c-35 0 -66 -3 -69 -7z"/>
<path d="M1900 7006 c0 -36 4 -67 9 -70 5 -4 37 -9 71 -13 l61 -6 -3 74 -3 74
-67 3 -68 3 0 -65z"/>
<path d="M2077 7053 c-4 -3 -7 -35 -7 -70 l0 -63 43 -1 c23 0 52 -2 65 -5 21
-4 22 -1 22 65 l0 69 -31 6 c-41 8 -84 8 -92 -1z"/>
<path d="M2230 7001 c0 -22 -2 -45 -5 -53 -9 -25 12 -41 56 -41 24 1 50 -4 56
-9 18 -15 25 9 21 78 l-3 59 -62 3 -63 3 0 -40z"/>
<path d="M2384 7007 c-3 -8 -4 -36 -2 -63 3 -45 5 -49 28 -50 14 0 33 -4 42
-8 37 -17 53 -3 56 49 1 28 -1 55 -5 61 -5 6 -32 15 -60 19 -42 5 -54 4 -59
-8z"/>
<path d="M2611 6975 c1 -19 18 -51 18 -35 0 8 -4 22 -9 30 -5 8 -9 11 -9 5z"/>
<path d="M551 6911 c-8 -5 -19 -7 -25 -5 -15 6 -53 -22 -44 -32 5 -4 20 -2 34
5 22 10 30 9 45 -5 17 -15 19 -15 25 0 7 18 -1 46 -13 46 -4 0 -14 -4 -22 -9z"/>
<path d="M837 6913 c-4 -3 -7 -37 -7 -75 0 -51 3 -69 13 -65 6 2 12 9 12 15 0
21 15 25 35 7 11 -10 20 -14 20 -10 0 5 5 4 12 -3 19 -19 48 35 48 91 l0 47
-63 0 c-35 0 -67 -3 -70 -7z"/>
<path d="M1005 6897 c-4 -13 -5 -41 -3 -63 2 -31 7 -40 25 -42 13 -2 29 5 39
17 13 15 22 18 36 10 10 -5 18 -14 18 -20 0 -13 61 -89 72 -89 17 0 7 29 -12
35 -24 8 -53 93 -38 112 15 19 -1 35 -29 28 -16 -4 -29 -1 -37 8 -6 8 -23 17
-38 21 -23 5 -29 2 -33 -17z"/>
<path d="M1550 6830 l0 -70 45 0 c43 0 45 1 45 29 0 21 6 30 22 34 27 7 34 2
21 -15 -6 -7 -7 -22 -3 -33 12 -32 22 3 18 66 l-3 54 -72 3 -73 3 0 -71z"/>
<path d="M1253 6875 c-30 -33 -2 -88 38 -78 25 7 32 35 18 67 -13 28 -37 33
-56 11z"/>
<path d="M385 6821 c-8 -13 5 -61 16 -61 12 0 12 57 0 65 -5 3 -12 1 -16 -4z"/>
<path d="M11 6761 c-7 -5 -9 -11 -4 -14 5 -3 15 -2 22 2 7 5 9 11 4 14 -5 3
-15 2 -22 -2z"/>
<path d="M950 6762 c1 -14 27 -41 33 -35 13 13 7 31 -13 36 -11 3 -20 2 -20
-1z"/>
<path d="M1431 6724 c0 -11 3 -14 6 -6 3 7 2 16 -1 19 -3 4 -6 -2 -5 -13z"/>
<path d="M1690 6710 c0 -5 5 -10 10 -10 6 0 10 5 10 10 0 6 -4 10 -10 10 -5 0
-10 -4 -10 -10z"/>
<path d="M3260 6254 c0 -8 5 -25 11 -36 9 -17 13 -18 20 -7 13 22 11 33 -11
47 -17 10 -20 10 -20 -4z"/>
<path d="M3300 6160 c0 -11 5 -20 10 -20 6 0 10 9 10 20 0 11 -4 20 -10 20 -5
0 -10 -9 -10 -20z"/>
<path d="M3333 6023 c-15 -5 -17 -29 -4 -37 5 -3 11 5 13 19 3 14 5 25 4 24 0
0 -7 -3 -13 -6z"/>
<path d="M3270 5997 c0 -16 6 -23 20 -24 23 -2 26 12 6 33 -20 20 -26 18 -26
-9z"/>
<path d="M3077 5959 c-10 -37 -8 -42 9 -25 10 11 12 21 6 32 -8 14 -10 13 -15
-7z"/>
<path d="M3022 5933 c-13 -15 -22 -37 -21 -56 l0 -32 16 35 c8 19 20 43 25 53
14 29 5 28 -20 0z"/>
<path d="M3252 5898 c-7 -7 -12 -25 -12 -41 0 -16 -5 -47 -11 -67 -7 -24 -8
-44 -2 -54 8 -14 16 -10 56 29 26 25 51 45 56 45 19 0 17 26 -2 55 -33 47 -60
58 -85 33z"/>
<path d="M3165 5630 c-3 -5 -1 -18 4 -27 9 -16 10 -14 11 10 0 28 -5 34 -15
17z"/>
<path d="M3138 5575 c-20 -27 -23 -51 -8 -60 6 -3 10 -13 10 -21 0 -12 -4 -13
-22 -3 -13 7 -26 17 -30 23 -5 6 -8 1 -8 -11 0 -18 -6 -23 -25 -23 -15 0 -31
-10 -41 -25 -16 -24 -16 -27 5 -49 23 -25 27 -37 10 -33 -6 1 -14 -4 -16 -10
-3 -7 1 -13 7 -13 7 0 9 -8 5 -22 -6 -19 -5 -21 6 -10 8 7 19 30 25 50 l12 37
7 -30 c5 -26 12 -30 41 -32 40 -2 48 17 43 91 -2 24 -1 42 3 40 3 -2 9 14 13
36 8 46 8 50 -2 49 -5 0 -10 9 -13 19 -5 19 -6 19 -22 -3z m2 -135 c0 -11 -4
-20 -10 -20 -5 0 -10 9 -10 20 0 11 5 20 10 20 6 0 10 -9 10 -20z m-5 -39 c3
-5 1 -12 -5 -16 -5 -3 -10 1 -10 9 0 18 6 21 15 7z"/>
<path d="M6068 5495 c2 -14 8 -25 13 -25 14 0 11 26 -5 39 -11 9 -12 6 -8 -14z"/>
<path d="M5676 5444 c-10 -27 -7 -44 9 -44 9 0 15 9 15 24 0 30 -15 42 -24 20z"/>
<path d="M6071 5414 c0 -11 3 -14 6 -6 3 7 2 16 -1 19 -3 4 -6 -2 -5 -13z"/>
<path d="M2953 5393 c-7 -15 -11 -29 -8 -31 9 -10 44 30 38 44 -8 21 -17 17
-30 -13z"/>
<path d="M3255 5380 c3 -5 8 -10 11 -10 2 0 4 5 4 10 0 6 -5 10 -11 10 -5 0
-7 -4 -4 -10z"/>
<path d="M2872 5338 c7 -20 48 -23 48 -4 0 11 -9 16 -26 16 -16 0 -24 -5 -22
-12z"/>
<path d="M5760 5311 c0 -30 4 -41 13 -38 13 5 11 56 -4 72 -5 5 -9 -7 -9 -34z"/>
<path d="M5836 5294 l4 -59 -14 40 c-13 36 -14 37 -15 13 -1 -16 -6 -28 -12
-28 -5 0 -8 -4 -5 -8 3 -5 2 -22 -3 -38 l-8 -29 -7 33 c-4 18 -12 29 -17 26
-14 -8 -1 -63 22 -96 11 -14 19 -30 19 -35 0 -5 11 -19 23 -30 22 -18 25 -19
35 -4 9 13 11 7 10 -27 -1 -23 2 -45 5 -49 4 -3 7 13 7 36 0 37 2 42 19 36 16
-5 20 1 25 38 4 25 13 53 21 63 14 18 14 18 15 -3 0 -12 -4 -25 -10 -28 -5 -3
-10 -20 -10 -36 0 -17 -5 -39 -10 -49 -13 -24 5 -37 19 -13 5 10 12 17 15 16
13 -6 26 -2 26 7 0 6 -7 10 -15 10 -12 0 -14 6 -8 28 17 58 0 187 -24 196 -12
5 -14 -1 -11 -29 3 -26 1 -34 -9 -31 -9 4 -13 -5 -13 -29 0 -39 -16 -48 -23
-12 -4 19 -4 19 -6 -5 -1 -32 -21 -78 -33 -78 -10 0 -10 88 1 151 5 33 4 52
-5 64 -11 14 -12 8 -8 -41z"/>
<path d="M5624 5236 c-3 -7 -4 -17 -3 -22 1 -5 -1 -22 -6 -37 -5 -19 -3 -38 6
-55 7 -15 15 -31 17 -36 3 -4 -6 -5 -18 -1 -21 7 -22 5 -15 -27 9 -40 13 -45
48 -53 25 -7 27 -5 27 23 0 17 -9 47 -21 66 -15 26 -21 53 -21 96 0 60 -4 72
-14 46z"/>
<path d="M5713 5195 c0 -22 2 -30 4 -17 2 12 2 30 0 40 -3 9 -5 -1 -4 -23z"/>
<path d="M5671 5194 c-12 -27 -7 -64 10 -64 5 0 7 12 4 27 -2 15 0 30 5 33 5
3 5 11 1 18 -5 9 -11 5 -20 -14z"/>
<path d="M6031 5144 c0 -11 3 -14 6 -6 3 7 2 16 -1 19 -3 4 -6 -2 -5 -13z"/>
<path d="M5579 5118 c-1 -13 -2 -30 -3 -40 -1 -9 -4 -19 -7 -22 -9 -9 2 -56
12 -56 5 0 9 32 9 70 0 39 -2 70 -5 70 -3 0 -6 -10 -6 -22z"/>
<path d="M5712 5082 c-20 -42 -15 -86 13 -117 14 -15 25 -34 23 -44 -6 -34 48
-19 67 20 20 38 19 61 -6 109 -25 48 -35 55 -44 32 -6 -16 -8 -15 -24 4 l-17
21 -12 -25z"/>
<path d="M3415 5079 c-16 -6 -43 -11 -60 -13 -23 -2 -29 -6 -27 -22 5 -31 5
-38 -2 -54 -9 -23 7 -40 32 -33 29 7 25 39 -3 35 -16 -2 -15 0 5 12 44 26 47
22 42 -63 -3 -52 -1 -81 7 -85 6 -4 11 -26 11 -50 0 -23 8 -60 19 -81 l19 -39
15 31 c9 17 14 32 12 35 -2 2 -6 76 -9 163 -3 88 -5 163 -6 168 0 9 -17 8 -55
-4z m45 -299 c0 -5 -4 -10 -10 -10 -5 0 -10 5 -10 10 0 6 5 10 10 10 6 0 10
-4 10 -10z"/>
<path d="M3270 5069 c0 -5 5 -7 10 -4 6 3 10 8 10 11 0 2 -4 4 -10 4 -5 0 -10
-5 -10 -11z"/>
<path d="M6031 5034 c-1 -27 -31 -55 -31 -30 0 9 -4 16 -10 16 -15 0 -12 -42
5 -84 17 -39 26 -44 48 -21 11 11 13 24 7 52 -5 21 -10 49 -13 63 -4 21 -4 22
-6 4z"/>
<path d="M3267 5020 c3 -11 7 -20 9 -20 2 0 4 9 4 20 0 11 -4 20 -9 20 -5 0
-7 -9 -4 -20z"/>
<path d="M3301 4944 c0 -11 3 -14 6 -6 3 7 2 16 -1 19 -3 4 -6 -2 -5 -13z"/>
<path d="M3347 4922 c-25 -5 -62 -86 -49 -108 8 -15 12 -12 21 22 6 21 11 45
11 52 0 6 6 12 14 12 8 0 18 5 21 11 9 13 4 16 -18 11z"/>
<path d="M3177 4872 c-10 -10 -17 -33 -17 -52 l0 -33 19 25 c23 29 38 78 24
78 -6 0 -17 -8 -26 -18z"/>
<path d="M3270 4863 c0 -21 -3 -24 -10 -13 -14 23 -22 -7 -18 -76 3 -57 3 -58
18 -34 16 27 30 150 18 150 -5 0 -8 -12 -8 -27z"/>
<path d="M5696 4881 c-8 -12 3 -41 15 -41 5 0 9 11 9 25 0 25 -14 34 -24 16z"/>
<path d="M3142 4780 c0 -14 2 -19 5 -12 2 6 2 18 0 25 -3 6 -5 1 -5 -13z"/>
<path d="M3560 4481 c0 -17 5 -33 10 -36 6 -4 10 8 10 29 0 20 -4 36 -10 36
-5 0 -10 -13 -10 -29z"/>
<path d="M5483 4427 c-8 -14 45 -60 63 -53 10 4 14 16 12 33 -3 24 -8 28 -36
29 -18 1 -35 -3 -39 -9z"/>
<path d="M5325 4421 c-3 -6 3 -15 14 -21 21 -11 37 2 26 20 -8 13 -32 13 -40
1z"/>
<path d="M5540 4340 c0 -11 5 -20 10 -20 6 0 10 9 10 20 0 11 -4 20 -10 20 -5
0 -10 -9 -10 -20z"/>
<path d="M3379 4273 c-62 -84 -70 -110 -59 -196 5 -42 17 -93 26 -114 9 -21
27 -76 40 -123 l24 -85 -7 130 c-10 178 -5 287 17 367 23 83 10 89 -41 21z"/>
<path d="M5090 4111 c0 -6 5 -13 10 -16 6 -3 10 1 10 9 0 9 -4 16 -10 16 -5 0
-10 -4 -10 -9z"/>
<path d="M5044 4059 c-8 -14 -9 -87 0 -96 11 -12 19 6 24 57 4 48 -7 66 -24
39z"/>
<path d="M2922 3985 c0 -16 2 -22 5 -12 2 9 2 23 0 30 -3 6 -5 -1 -5 -18z"/>
<path d="M4910 3950 c0 -5 5 -10 10 -10 6 0 10 5 10 10 0 6 -4 10 -10 10 -5 0
-10 -4 -10 -10z"/>
<path d="M4930 3911 c0 -6 4 -13 10 -16 6 -3 7 1 4 9 -7 18 -14 21 -14 7z"/>
<path d="M4885 3890 c3 -5 8 -10 11 -10 2 0 4 5 4 10 0 6 -5 10 -11 10 -5 0
-7 -4 -4 -10z"/>
<path d="M5078 3775 c-15 -47 -18 -83 -10 -104 l8 -24 12 29 c8 19 9 44 4 74
-6 33 -10 40 -14 25z"/>
<path d="M346 3307 c-16 -12 -16 -15 -3 -26 13 -10 16 -8 22 9 9 28 3 33 -19
17z"/>
<path d="M4560 1645 c-20 -21 -22 -28 -12 -50 7 -14 19 -28 27 -31 40 -16 62
58 27 89 -17 16 -20 15 -42 -8z"/>
<path d="M6500 1290 c-18 -6 -4 -8 47 -9 39 -1 75 4 78 9 7 12 -88 12 -125 0z"/>
<path d="M6694 1128 c-3 -4 16 -8 41 -8 27 0 44 4 40 10 -7 11 -74 10 -81 -2z"/>
<path d="M6453 1123 c6 -9 115 -8 124 1 4 3 -24 6 -61 6 -37 0 -65 -3 -63 -7z"/>
<path d="M6601 1114 c0 -11 3 -14 6 -6 3 7 2 16 -1 19 -3 4 -6 -2 -5 -13z"/>
<path d="M7031 1014 c0 -11 3 -14 6 -6 3 7 2 16 -1 19 -3 4 -6 -2 -5 -13z"/>
<path d="M6975 690 c3 -5 8 -10 11 -10 2 0 4 5 4 10 0 6 -5 10 -11 10 -5 0 -7
-4 -4 -10z"/>
<path d="M6584 682 c-8 -6 -34 -77 -34 -95 0 -4 7 -4 16 0 10 4 14 14 11 29
-2 13 -1 24 3 24 7 0 22 41 17 47 -2 1 -7 -1 -13 -5z"/>
<path d="M6470 664 c0 -8 5 -12 10 -9 6 4 8 11 5 16 -9 14 -15 11 -15 -7z"/>
<path d="M6682 625 c-6 -14 -7 -25 -2 -25 9 0 25 39 18 46 -3 2 -10 -7 -16
-21z"/>
<path d="M0 590 c0 -13 5 -17 20 -13 26 7 26 19 0 26 -15 4 -20 0 -20 -13z"/>
<path d="M6640 558 c-28 -47 -25 -58 5 -18 24 32 31 50 20 50 -3 0 -14 -15
-25 -32z"/>
<path d="M6421 564 c0 -11 3 -14 6 -6 3 7 2 16 -1 19 -3 4 -6 -2 -5 -13z"/>
<path d="M6730 552 c0 -11 5 -24 10 -27 6 -4 9 2 7 14 -4 29 -17 39 -17 13z"/>
<path d="M6922 525 c0 -45 14 -108 18 -85 8 45 5 78 -6 100 -13 24 -13 24 -12
-15z"/>
<path d="M6970 514 c0 -8 5 -12 10 -9 6 3 10 10 10 16 0 5 -4 9 -10 9 -5 0
-10 -7 -10 -16z"/>
<path d="M4610 445 c-15 -39 -13 -85 4 -85 23 0 37 27 34 66 -4 45 -24 56 -38
19z"/>
<path d="M6799 443 c-13 -16 -12 -17 4 -4 9 7 17 15 17 17 0 8 -8 3 -21 -13z"/>
<path d="M6830 401 c0 -14 5 -19 15 -14 17 6 15 25 -3 31 -7 2 -12 -5 -12 -17z"/>
<path d="M6945 400 c3 -5 8 -10 11 -10 2 0 4 5 4 10 0 6 -5 10 -11 10 -5 0 -7
-4 -4 -10z"/>
<path d="M6990 314 c0 -8 5 -12 10 -9 6 4 8 11 5 16 -9 14 -15 11 -15 -7z"/>
<path d="M6910 205 c-7 -9 -10 -18 -7 -21 3 -3 10 4 17 15 13 25 8 27 -10 6z"/>
</g>
</svg>
